P2
64 208
255
50
50
50
50
50
50
50
50
50
50
50
50
50
50
50
50
51
51
51
51
51
0
0
0
0
0
0
51
51
51
51
51
0
0
0
0
0
0
0
0
0
0
0
0
0
0
0
0
0
0
0
0
0
0
0
0
0
0
0
0
0
0
0
0
50
50
52
52
52
52
52
52
52
52
52
52
52
52
50
50
51
0
0
0
51
0
0
0
0
0
0
51
0
0
0
51
0
0
0
53
53
53
53
0
0
0
0
0
0
0
0
0
0
0
0
0
0
0
0
0
0
0
0
0
0
0
0
0
50
52
50
52
52
52
52
52
52
52
52
52
52
50
52
50
51
0
51
51
0
0
0
0
0
0
0
0
51
51
0
51
0
0
53
0
0
0
0
51
51
51
51
51
0
0
0
0
0
0
0
0
0
51
51
51
51
51
0
0
0
0
0
0
50
52
52
50
52
52
52
52
52
52
52
52
50
52
52
50
51
0
51
0
0
0
0
0
0
0
0
0
0
51
0
51
0
53
0
0
0
51
51
0
0
53
0
0
53
0
0
0
0
0
0
0
51
51
51
51
51
51
51
0
0
0
0
0
50
52
52
52
50
52
52
52
52
52
52
50
52
52
52
50
51
51
0
0
0
0
0
0
0
0
0
0
0
0
51
51
0
53
0
0
51
0
0
0
0
0
53
0
0
53
0
0
0
0
0
51
51
51
51
51
51
51
51
51
0
0
0
0
50
52
52
52
52
50
52
52
52
52
50
52
52
52
52
50
0
0
0
0
0
0
0
0
0
0
0
0
0
0
0
0
0
53
0
51
0
0
0
0
0
0
0
51
0
53
0
0
0
0
0
51
51
51
0
0
0
51
51
51
0
0
0
0
50
52
52
52
52
52
50
52
52
50
52
52
52
52
52
50
0
0
0
0
0
0
0
0
0
0
0
0
0
0
0
0
0
53
0
51
0
0
0
54
54
0
0
0
51
53
0
0
0
0
0
51
51
51
0
0
0
51
51
51
0
0
0
0
50
52
52
52
52
52
52
50
50
52
52
52
52
52
52
50
0
0
0
0
0
0
0
0
0
0
0
0
0
0
0
0
0
0
51
0
53
53
54
54
54
54
53
53
0
51
0
0
0
0
0
0
0
0
0
0
51
51
51
0
0
0
0
0
50
52
52
52
52
52
52
50
50
52
52
52
52
52
52
50
0
0
0
0
0
0
0
0
0
0
0
0
0
0
0
0
0
0
51
51
0
0
54
54
54
54
0
0
51
51
0
0
0
0
0
0
0
0
0
51
51
51
51
0
0
0
0
0
50
52
52
52
52
52
50
52
52
50
52
52
52
52
52
50
0
0
0
0
0
0
0
0
0
0
0
0
0
0
0
0
0
0
51
53
51
51
51
54
54
51
51
51
53
0
51
0
0
0
0
0
0
0
51
51
51
51
0
0
0
0
0
0
50
52
52
52
52
50
52
52
52
52
50
52
52
52
52
50
0
0
0
0
0
0
0
0
0
0
0
0
0
0
0
0
0
0
51
0
53
0
0
51
51
0
0
0
53
0
51
0
0
0
0
0
0
0
51
51
51
0
0
0
0
0
0
0
50
52
52
52
50
52
52
52
52
52
52
50
52
52
52
50
51
51
0
0
0
0
0
0
0
0
0
0
0
0
51
51
0
0
51
0
0
51
0
0
0
0
0
53
0
0
51
0
0
0
0
0
0
0
51
51
51
0
0
0
0
0
0
0
50
52
52
50
52
52
52
52
52
52
52
52
50
52
52
50
51
0
51
0
0
0
0
0
0
0
0
0
0
51
0
51
0
0
0
51
0
0
51
0
0
53
53
0
0
0
51
0
0
0
0
0
0
0
0
0
0
0
0
0
0
0
0
0
50
52
50
52
52
52
52
52
52
52
52
52
52
50
52
50
51
0
51
51
0
0
0
0
0
0
0
0
51
51
0
51
0
0
0
0
53
53
53
51
51
0
0
0
0
51
0
0
0
0
0
0
0
0
51
51
51
0
0
0
0
0
0
0
50
50
52
52
52
52
52
52
52
52
52
52
52
52
50
50
51
0
0
0
51
0
0
0
0
0
0
51
0
0
0
51
0
0
0
0
0
0
0
0
0
51
51
51
51
0
0
0
0
0
0
0
0
0
51
51
51
0
0
0
0
0
0
0
50
50
50
50
50
50
50
50
50
50
50
50
50
50
50
50
51
51
51
51
51
0
0
0
0
0
0
51
51
51
51
51
0
0
0
0
0
0
0
0
0
0
0
0
0
0
0
0
0
0
0
0
0
0
0
0
0
0
0
0
0
0
0
0
50
50
50
50
50
50
55
55
55
55
50
50
50
50
50
50
50
50
50
50
50
50
50
50
50
50
50
50
50
50
50
50
50
50
50
50
50
50
50
50
50
50
50
50
50
50
50
50
50
50
50
50
50
50
50
50
50
50
50
50
50
50
50
50
50
50
52
52
52
52
52
55
55
52
52
52
52
52
50
50
50
50
52
52
52
52
52
52
52
52
52
52
52
52
50
50
50
50
52
52
52
52
52
52
52
52
52
52
52
52
50
50
50
50
52
52
52
52
52
52
52
52
52
52
52
52
50
50
50
52
50
52
52
52
52
52
52
52
52
52
52
50
52
50
50
52
50
52
52
52
52
52
52
52
52
52
52
50
52
50
50
52
50
52
52
52
52
52
52
52
52
52
52
50
52
50
50
52
50
52
52
52
52
52
52
52
52
52
52
50
52
50
50
52
52
50
52
52
52
52
52
52
52
52
50
52
52
50
50
52
52
50
52
52
52
52
52
52
52
52
50
52
52
50
50
52
52
50
52
52
52
52
52
52
52
52
50
52
52
50
50
52
52
50
52
52
52
52
52
52
52
52
50
52
52
50
50
52
52
52
50
52
52
52
52
52
52
50
52
52
52
50
50
52
52
52
50
52
52
52
52
52
52
50
52
52
52
50
50
52
52
52
50
52
52
52
52
52
52
50
52
52
52
50
50
52
52
52
50
52
52
52
52
52
52
50
52
52
52
50
50
52
52
52
52
50
52
52
52
52
50
52
52
52
52
50
50
52
52
52
52
50
52
52
52
52
50
52
52
52
52
50
50
52
52
52
52
50
52
52
52
52
50
52
52
52
52
50
50
52
52
52
52
50
52
52
52
52
50
52
52
52
52
50
50
52
52
52
52
52
50
52
52
50
52
52
52
52
52
50
50
52
52
52
52
52
50
52
52
50
52
52
52
52
52
55
50
52
52
52
52
52
50
52
52
50
52
52
52
52
52
50
55
52
52
52
52
52
50
52
52
50
52
52
52
52
52
50
50
52
52
52
52
52
52
50
50
52
52
52
52
52
52
50
50
52
52
52
52
52
52
50
50
52
52
52
52
52
55
55
50
52
52
52
52
52
52
50
50
52
52
52
52
52
52
50
55
55
52
52
52
52
52
50
50
52
52
52
52
52
52
50
50
52
52
52
52
52
52
50
50
52
52
52
52
52
52
50
50
52
52
52
52
52
52
50
50
52
52
52
52
52
55
55
50
52
52
52
52
52
52
50
50
52
52
52
52
52
52
50
55
55
52
52
52
52
52
50
50
52
52
52
52
52
52
50
50
52
52
52
52
52
50
52
52
50
52
52
52
52
52
50
50
52
52
52
52
52
50
52
52
50
52
52
52
52
52
55
50
52
52
52
52
52
50
52
52
50
52
52
52
52
52
50
55
52
52
52
52
52
50
52
52
50
52
52
52
52
52
50
50
52
52
52
52
50
52
52
52
52
50
52
52
52
52
50
50
52
52
52
52
50
52
52
52
52
50
52
52
52
52
50
50
52
52
52
52
50
52
52
52
52
50
52
52
52
52
50
50
52
52
52
52
50
52
52
52
52
50
52
52
52
52
50
50
52
52
52
50
52
52
52
52
52
52
50
52
52
52
50
50
52
52
52
50
52
52
52
52
52
52
50
52
52
52
50
50
52
52
52
50
52
52
52
52
52
52
50
52
52
52
50
50
52
52
52
50
52
52
52
52
52
52
50
52
52
52
50
50
52
52
50
52
52
52
52
52
52
52
52
50
52
52
50
50
52
52
50
52
52
52
52
52
52
52
52
50
52
52
50
50
52
52
50
52
52
52
52
52
52
52
52
50
52
52
50
50
52
52
50
52
52
52
52
52
52
52
52
50
52
52
50
50
52
50
52
52
52
52
52
52
52
52
52
52
50
52
50
50
52
50
52
52
52
52
52
52
52
52
52
52
50
52
50
50
52
50
52
52
52
52
52
52
52
52
52
52
50
52
50
50
52
50
52
52
52
52
52
52
52
52
52
52
50
52
50
50
50
52
52
52
52
52
52
52
52
52
52
52
52
50
50
50
50
52
52
52
52
52
52
52
52
52
52
52
52
50
50
50
50
52
52
52
52
52
55
55
52
52
52
52
52
50
50
50
50
52
52
52
52
52
52
52
52
52
52
52
52
50
50
50
50
50
50
50
50
50
50
50
50
50
50
50
50
50
50
50
50
50
50
50
50
50
50
50
50
50
50
50
50
50
50
50
50
50
50
50
50
55
55
55
55
50
50
50
50
50
50
50
50
50
50
50
50
50
50
50
50
50
50
50
50
50
50
50
50
50
50
56
56
57
58
58
57
56
56
50
50
50
50
50
50
50
50
50
50
50
50
50
50
50
50
50
50
50
50
50
50
50
50
50
50
50
50
50
50
50
50
50
50
50
50
50
50
50
50
50
50
50
50
50
50
50
50
50
50
50
50
50
50
52
52
59
59
60
57
57
60
59
59
52
52
50
50
50
50
52
52
52
52
52
52
52
52
52
52
52
52
50
50
50
50
52
52
52
52
52
52
52
52
52
52
52
52
50
50
50
50
52
52
52
52
52
52
52
52
52
52
52
52
50
50
50
52
50
52
52
59
59
60
60
59
59
52
52
50
52
50
50
52
50
52
52
52
52
52
52
52
52
52
52
50
52
50
50
52
50
52
52
52
52
52
52
52
52
52
52
50
52
50
50
52
50
52
52
52
52
52
52
52
52
52
52
50
52
50
50
52
52
50
52
52
59
59
59
59
52
52
50
52
52
50
50
52
52
50
52
52
52
52
52
52
52
52
50
52
52
50
50
52
52
50
52
52
52
52
52
52
52
52
50
52
52
50
50
52
52
50
52
52
52
52
52
52
52
52
50
52
52
50
50
52
52
52
50
52
52
52
52
52
52
50
52
52
52
50
50
52
52
52
50
52
52
52
52
52
52
50
52
52
59
56
50
52
52
52
50
52
52
52
52
52
52
50
52
52
52
50
56
59
52
52
50
52
52
52
52
52
52
50
52
52
52
50
50
52
52
52
52
50
52
52
52
52
50
52
52
52
52
50
50
52
52
52
52
50
52
52
52
52
50
52
52
59
59
56
50
52
52
52
52
50
52
52
52
52
50
52
52
52
52
50
56
59
59
52
52
50
52
52
52
52
50
52
52
52
52
50
50
52
52
52
52
52
50
52
52
50
52
52
52
52
52
50
50
52
52
52
52
52
50
52
52
50
52
52
59
59
60
57
50
52
52
52
52
52
50
52
52
50
52
52
52
52
52
50
57
60
59
59
52
52
50
52
52
50
52
52
52
52
52
50
50
52
52
52
52
52
52
50
50
52
52
52
52
52
52
50
50
52
52
52
52
52
52
50
50
52
52
52
59
60
57
58
50
52
52
52
52
52
52
50
50
52
52
52
52
52
52
50
58
57
60
59
52
52
52
50
50
52
52
52
52
52
52
50
50
52
52
52
52
52
52
50
50
52
52
52
52
52
52
50
50
52
52
52
52
52
52
50
50
52
52
52
59
60
57
58
50
52
52
52
52
52
52
50
50
52
52
52
52
52
52
50
58
57
60
59
52
52
52
50
50
52
52
52
52
52
52
50
50
52
52
52
52
52
50
52
52
50
52
52
52
52
52
50
50
52
52
52
52
52
50
52
52
50
52
52
59
59
60
57
50
52
52
52
52
52
50
52
52
50
52
52
52
52
52
50
57
60
59
59
52
52
50
52
52
50
52
52
52
52
52
50
50
52
52
52
52
50
52
52
52
52
50
52
52
52
52
50
50
52
52
52
52
50
52
52
52
52
50
52
52
59
59
56
50
52
52
52
52
50
52
52
52
52
50
52
52
52
52
50
56
59
59
52
52
50
52
52
52
52
50
52
52
52
52
50
50
52
52
52
50
52
52
52
52
52
52
50
52
52
52
50
50
52
52
52
50
52
52
52
52
52
52
50
52
52
59
56
50
52
52
52
50
52
52
52
52
52
52
50
52
52
52
50
56
59
52
52
50
52
52
52
52
52
52
50
52
52
52
50
50
52
52
50
52
52
52
52
52
52
52
52
50
52
52
50
50
52
52
50
52
52
52
52
52
52
52
52
50
52
52
50
50
52
52
50
52
52
59
59
59
59
52
52
50
52
52
50
50
52
52
50
52
52
52
52
52
52
52
52
50
52
52
50
50
52
50
52
52
52
52
52
52
52
52
52
52
50
52
50
50
52
50
52
52
52
52
52
52
52
52
52
52
50
52
50
50
52
50
52
52
59
59
60
60
59
59
52
52
50
52
50
50
52
50
52
52
52
52
52
52
52
52
52
52
50
52
50
50
50
52
52
52
52
52
52
52
52
52
52
52
52
50
50
50
50
52
52
52
52
52
52
52
52
52
52
52
52
50
50
50
50
52
52
59
59
60
57
57
60
59
59
52
52
50
50
50
50
52
52
52
52
52
52
52
52
52
52
52
52
50
50
50
50
50
50
50
50
50
50
50
50
50
50
50
50
50
50
50
50
50
50
50
50
50
50
50
50
50
50
50
50
50
50
50
50
50
50
56
56
57
58
58
57
56
56
50
50
50
50
50
50
50
50
50
50
50
50
50
50
50
50
50
50
50
50
50
50
50
50
50
50
55
55
55
55
50
50
50
50
50
50
50
50
50
50
50
50
55
55
55
55
50
50
50
50
50
50
50
50
50
50
50
50
50
50
50
50
50
50
50
50
50
50
50
50
50
50
50
50
50
50
50
50
50
50
50
50
50
50
50
50
52
52
52
52
52
55
55
52
52
52
52
52
50
50
50
50
52
52
52
52
52
55
55
52
52
52
52
52
50
50
50
50
52
52
52
52
52
52
52
52
52
52
52
52
50
50
50
50
52
52
52
52
52
52
52
52
52
52
52
52
50
50
50
52
50
52
52
52
52
52
52
52
52
52
52
50
52
50
50
52
50
52
52
52
52
52
52
52
52
52
52
50
52
50
50
52
50
52
52
52
52
52
52
52
52
52
52
50
52
50
50
52
50
52
52
52
52
52
52
52
52
52
52
50
52
50
50
52
52
50
52
52
52
52
52
52
52
52
50
52
52
50
50
52
52
50
52
52
52
52
52
52
52
52
50
52
52
50
50
52
52
50
52
52
52
52
52
52
52
52
50
52
52
50
50
52
52
50
52
52
52
52
52
52
52
52
50
52
52
50
50
52
52
52
50
52
52
52
52
52
52
50
52
52
52
50
50
52
52
52
50
52
52
52
52
52
52
50
52
52
52
50
50
52
52
52
50
52
52
52
52
52
52
50
52
52
52
50
50
52
52
52
50
52
52
52
52
52
52
50
52
52
52
50
50
52
52
52
52
50
52
52
52
52
50
52
52
52
52
50
50
52
52
52
52
50
52
52
52
52
50
52
52
52
52
50
50
52
52
52
52
50
52
52
52
52
50
52
52
52
52
50
50
52
52
52
52
50
52
52
52
52
50
52
52
52
52
50
55
52
52
52
52
52
50
52
52
50
52
52
52
52
52
50
50
52
52
52
52
52
50
52
52
50
52
52
52
52
52
55
50
52
52
52
52
52
50
52
52
50
52
52
52
52
52
55
55
52
52
52
52
52
50
52
52
50
52
52
52
52
52
50
55
55
52
52
52
52
52
50
50
52
52
52
52
52
52
50
50
52
52
52
52
52
52
50
50
52
52
52
52
52
55
55
50
52
52
52
52
52
52
50
50
52
52
52
52
52
55
55
55
55
52
52
52
52
52
50
50
52
52
52
52
52
52
50
55
55
52
52
52
52
52
50
50
52
52
52
52
52
52
50
50
52
52
52
52
52
52
50
50
52
52
52
52
52
55
55
50
52
52
52
52
52
52
50
50
52
52
52
52
52
55
55
55
55
52
52
52
52
52
50
50
52
52
52
52
52
52
50
55
52
52
52
52
52
50
52
52
50
52
52
52
52
52
50
50
52
52
52
52
52
50
52
52
50
52
52
52
52
52
55
50
52
52
52
52
52
50
52
52
50
52
52
52
52
52
55
55
52
52
52
52
52
50
52
52
50
52
52
52
52
52
50
50
52
52
52
52
50
52
52
52
52
50
52
52
52
52
50
50
52
52
52
52
50
52
52
52
52
50
52
52
52
52
50
50
52
52
52
52
50
52
52
52
52
50
52
52
52
52
50
50
52
52
52
52
50
52
52
52
52
50
52
52
52
52
50
50
52
52
52
50
52
52
52
52
52
52
50
52
52
52
50
50
52
52
52
50
52
52
52
52
52
52
50
52
52
52
50
50
52
52
52
50
52
52
52
52
52
52
50
52
52
52
50
50
52
52
52
50
52
52
52
52
52
52
50
52
52
52
50
50
52
52
50
52
52
52
52
52
52
52
52
50
52
52
50
50
52
52
50
52
52
52
52
52
52
52
52
50
52
52
50
50
52
52
50
52
52
52
52
52
52
52
52
50
52
52
50
50
52
52
50
52
52
52
52
52
52
52
52
50
52
52
50
50
52
50
52
52
52
52
52
52
52
52
52
52
50
52
50
50
52
50
52
52
52
52
52
52
52
52
52
52
50
52
50
50
52
50
52
52
52
52
52
52
52
52
52
52
50
52
50
50
52
50
52
52
52
52
52
52
52
52
52
52
50
52
50
50
50
52
52
52
52
52
52
52
52
52
52
52
52
50
50
50
50
52
52
52
52
52
52
52
52
52
52
52
52
50
50
50
50
52
52
52
52
52
55
55
52
52
52
52
52
50
50
50
50
52
52
52
52
52
55
55
52
52
52
52
52
50
50
50
50
50
50
50
50
50
50
50
50
50
50
50
50
50
50
50
50
50
50
50
50
50
50
50
50
50
50
50
50
50
50
50
50
50
50
50
50
55
55
55
55
50
50
50
50
50
50
50
50
50
50
50
50
55
55
55
55
50
50
50
50
50
50
50
50
50
50
56
56
57
58
58
57
56
56
50
50
50
50
50
50
50
50
50
50
55
55
55
55
50
50
50
50
50
50
50
50
50
50
50
50
50
50
50
50
50
50
50
50
50
50
50
50
50
50
50
50
50
50
50
50
50
50
50
50
50
50
50
50
52
52
59
59
60
57
57
60
59
59
52
52
50
50
50
50
52
52
52
52
52
55
55
52
52
52
52
52
50
50
50
50
52
52
52
52
52
52
52
52
52
52
52
52
50
50
50
50
52
52
52
52
52
52
52
52
52
52
52
52
50
50
50
52
50
52
52
59
59
60
60
59
59
52
52
50
52
50
50
52
50
52
52
52
52
52
52
52
52
52
52
50
52
50
50
52
50
52
52
52
52
52
52
52
52
52
52
50
52
50
50
52
50
52
52
52
52
52
52
52
52
52
52
50
52
50
50
52
52
50
52
52
59
59
59
59
52
52
50
52
52
50
50
52
52
50
52
52
52
52
52
52
52
52
50
52
52
50
50
52
52
50
52
52
52
52
52
52
52
52
50
52
52
50
50
52
52
50
52
52
52
52
52
52
52
52
50
52
52
50
50
52
52
52
50
52
52
52
52
52
52
50
52
52
52
50
50
52
52
52
50
52
52
52
52
52
52
50
52
52
59
56
50
52
52
52
50
52
52
52
52
52
52
50
52
52
52
50
56
59
52
52
50
52
52
52
52
52
52
50
52
52
52
50
50
52
52
52
52
50
52
52
52
52
50
52
52
52
52
50
50
52
52
52
52
50
52
52
52
52
50
52
52
59
59
56
50
52
52
52
52
50
52
52
52
52
50
52
52
52
52
50
56
59
59
52
52
50
52
52
52
52
50
52
52
52
52
50
55
52
52
52
52
52
50
52
52
50
52
52
52
52
52
50
50
52
52
52
52
52
50
52
52
50
52
52
59
59
60
57
50
52
52
52
52
52
50
52
52
50
52
52
52
52
52
55
57
60
59
59
52
52
50
52
52
50
52
52
52
52
52
50
55
55
52
52
52
52
52
50
50
52
52
52
52
52
52
50
50
52
52
52
52
52
52
50
50
52
52
52
59
60
57
58
50
52
52
52
52
52
52
50
50
52
52
52
52
52
55
55
58
57
60
59
52
52
52
50
50
52
52
52
52
52
52
50
55
55
52
52
52
52
52
50
50
52
52
52
52
52
52
50
50
52
52
52
52
52
52
50
50
52
52
52
59
60
57
58
50
52
52
52
52
52
52
50
50
52
52
52
52
52
55
55
58
57
60
59
52
52
52
50
50
52
52
52
52
52
52
50
55
52
52
52
52
52
50
52
52
50
52
52
52
52
52
50
50
52
52
52
52
52
50
52
52
50
52
52
59
59
60
57
50
52
52
52
52
52
50
52
52
50
52
52
52
52
52
55
57
60
59
59
52
52
50
52
52
50
52
52
52
52
52
50
50
52
52
52
52
50
52
52
52
52
50
52
52
52
52
50
50
52
52
52
52
50
52
52
52
52
50
52
52
59
59
56
50
52
52
52
52
50
52
52
52
52
50
52
52
52
52
50
56
59
59
52
52
50
52
52
52
52
50
52
52
52
52
50
50
52
52
52
50
52
52
52
52
52
52
50
52
52
52
50
50
52
52
52
50
52
52
52
52
52
52
50
52
52
59
56
50
52
52
52
50
52
52
52
52
52
52
50
52
52
52
50
56
59
52
52
50
52
52
52
52
52
52
50
52
52
52
50
50
52
52
50
52
52
52
52
52
52
52
52
50
52
52
50
50
52
52
50
52
52
52
52
52
52
52
52
50
52
52
50
50
52
52
50
52
52
59
59
59
59
52
52
50
52
52
50
50
52
52
50
52
52
52
52
52
52
52
52
50
52
52
50
50
52
50
52
52
52
52
52
52
52
52
52
52
50
52
50
50
52
50
52
52
52
52
52
52
52
52
52
52
50
52
50
50
52
50
52
52
59
59
60
60
59
59
52
52
50
52
50
50
52
50
52
52
52
52
52
52
52
52
52
52
50
52
50
50
50
52
52
52
52
52
52
52
52
52
52
52
52
50
50
50
50
52
52
52
52
52
52
52
52
52
52
52
52
50
50
50
50
52
52
59
59
60
57
57
60
59
59
52
52
50
50
50
50
52
52
52
52
52
55
55
52
52
52
52
52
50
50
50
50
50
50
50
50
50
50
50
50
50
50
50
50
50
50
50
50
50
50
50
50
50
50
50
50
50
50
50
50
50
50
50
50
50
50
56
56
57
58
58
57
56
56
50
50
50
50
50
50
50
50
50
50
55
55
55
55
50
50
50
50
50
50
50
50
50
50
50
50
55
55
55
55
50
50
50
50
50
50
50
50
50
50
56
56
57
58
58
57
56
56
50
50
50
50
50
50
50
50
50
50
50
50
50
50
50
50
50
50
50
50
50
50
50
50
50
50
50
50
50
50
50
50
50
50
50
50
50
50
52
52
52
52
52
55
55
52
52
52
52
52
50
50
50
50
52
52
59
59
60
57
57
60
59
59
52
52
50
50
50
50
52
52
52
52
52
52
52
52
52
52
52
52
50
50
50
50
52
52
52
52
52
52
52
52
52
52
52
52
50
50
50
52
50
52
52
52
52
52
52
52
52
52
52
50
52
50
50
52
50
52
52
59
59
60
60
59
59
52
52
50
52
50
50
52
50
52
52
52
52
52
52
52
52
52
52
50
52
50
50
52
50
52
52
52
52
52
52
52
52
52
52
50
52
50
50
52
52
50
52
52
52
52
52
52
52
52
50
52
52
50
50
52
52
50
52
52
59
59
59
59
52
52
50
52
52
50
50
52
52
50
52
52
52
52
52
52
52
52
50
52
52
50
50
52
52
50
52
52
52
52
52
52
52
52
50
52
52
50
56
59
52
52
50
52
52
52
52
52
52
50
52
52
52
50
50
52
52
52
50
52
52
52
52
52
52
50
52
52
52
50
50
52
52
52
50
52
52
52
52
52
52
50
52
52
59
56
50
52
52
52
50
52
52
52
52
52
52
50
52
52
52
50
56
59
59
52
52
50
52
52
52
52
50
52
52
52
52
50
50
52
52
52
52
50
52
52
52
52
50
52
52
52
52
50
50
52
52
52
52
50
52
52
52
52
50
52
52
59
59
56
50
52
52
52
52
50
52
52
52
52
50
52
52
52
52
50
57
60
59
59
52
52
50
52
52
50
52
52
52
52
52
50
50
52
52
52
52
52
50
52
52
50
52
52
52
52
52
55
50
52
52
52
52
52
50
52
52
50
52
52
59
59
60
57
55
52
52
52
52
52
50
52
52
50
52
52
52
52
52
50
58
57
60
59
52
52
52
50
50
52
52
52
52
52
52
50
50
52
52
52
52
52
52
50
50
52
52
52
52
52
55
55
50
52
52
52
52
52
52
50
50
52
52
52
59
60
57
58
55
55
52
52
52
52
52
50
50
52
52
52
52
52
52
50
58
57
60
59
52
52
52
50
50
52
52
52
52
52
52
50
50
52
52
52
52
52
52
50
50
52
52
52
52
52
55
55
50
52
52
52
52
52
52
50
50
52
52
52
59
60
57
58
55
55
52
52
52
52
52
50
50
52
52
52
52
52
52
50
57
60
59
59
52
52
50
52
52
50
52
52
52
52
52
50
50
52
52
52
52
52
50
52
52
50
52
52
52
52
52
55
50
52
52
52
52
52
50
52
52
50
52
52
59
59
60
57
55
52
52
52
52
52
50
52
52
50
52
52
52
52
52
50
56
59
59
52
52
50
52
52
52
52
50
52
52
52
52
50
50
52
52
52
52
50
52
52
52
52
50
52
52
52
52
50
50
52
52
52
52
50
52
52
52
52
50
52
52
59
59
56
50
52
52
52
52
50
52
52
52
52
50
52
52
52
52
50
56
59
52
52
50
52
52
52
52
52
52
50
52
52
52
50
50
52
52
52
50
52
52
52
52
52
52
50
52
52
52
50
50
52
52
52
50
52
52
52
52
52
52
50
52
52
59
56
50
52
52
52
50
52
52
52
52
52
52
50
52
52
52
50
50
52
52
50
52
52
52
52
52
52
52
52
50
52
52
50
50
52
52
50
52
52
52
52
52
52
52
52
50
52
52
50
50
52
52
50
52
52
52
52
52
52
52
52
50
52
52
50
50
52
52
50
52
52
59
59
59
59
52
52
50
52
52
50
50
52
50
52
52
52
52
52
52
52
52
52
52
50
52
50
50
52
50
52
52
52
52
52
52
52
52
52
52
50
52
50
50
52
50
52
52
52
52
52
52
52
52
52
52
50
52
50
50
52
50
52
52
59
59
60
60
59
59
52
52
50
52
50
50
50
52
52
52
52
52
52
52
52
52
52
52
52
50
50
50
50
52
52
52
52
52
52
52
52
52
52
52
52
50
50
50
50
52
52
52
52
52
55
55
52
52
52
52
52
50
50
50
50
52
52
59
59
60
57
57
60
59
59
52
52
50
50
50
50
50
50
50
50
50
50
50
50
50
50
50
50
50
50
50
50
50
50
50
50
50
50
50
50
50
50
50
50
50
50
50
50
50
50
50
50
55
55
55
55
50
50
50
50
50
50
50
50
50
50
56
56
57
58
58
57
56
56
50
50
50
50
0
0
0
0
0
0
0
0
0
0
0
0
0
0
0
0
0
0
0
0
0
0
0
0
0
0
0
0
0
0
0
0
0
0
0
0
0
61
62
63
64
64
61
0
0
0
0
0
0
0
0
0
0
0
0
0
0
0
0
0
0
0
0
0
0
0
0
0
0
0
0
0
0
0
0
0
0
0
0
0
0
0
0
0
0
0
0
0
0
0
0
0
0
0
0
0
0
0
0
0
0
61
62
63
64
64
61
0
0
0
0
0
0
0
0
0
0
0
0
0
62
62
0
0
0
0
0
0
0
0
0
0
0
0
0
0
0
0
0
0
0
0
0
0
0
0
0
0
0
0
0
0
0
0
0
0
0
0
0
0
0
0
0
0
0
61
62
63
64
64
61
0
0
0
0
0
0
0
0
0
0
0
0
62
0
0
62
0
0
0
0
0
0
0
0
0
0
65
66
65
65
66
65
0
0
0
0
0
0
0
0
0
0
0
64
64
0
0
0
0
0
0
0
0
0
0
0
0
0
67
68
69
70
70
67
0
0
0
0
0
0
0
0
0
0
0
0
68
64
64
68
0
0
0
0
0
0
0
0
0
65
65
66
65
65
66
65
65
0
0
0
0
0
0
0
0
64
64
64
66
65
65
65
65
0
0
0
0
0
0
0
0
64
64
64
64
64
64
64
64
0
0
0
0
0
0
0
0
65
65
65
65
66
64
64
64
0
0
0
0
0
0
0
0
65
65
66
65
65
66
65
65
0
0
0
0
61
61
61
67
64
64
66
66
65
65
65
65
65
0
0
0
0
0
62
68
64
64
64
64
64
64
64
64
0
0
0
0
0
0
0
65
65
65
65
65
66
66
64
64
67
61
61
61
0
0
0
0
65
65
66
65
65
66
65
65
0
0
0
0
64
64
64
70
64
64
71
66
66
66
66
66
66
0
0
0
0
62
0
64
64
66
71
71
71
71
66
64
64
0
0
0
0
0
0
66
66
66
66
66
66
71
64
64
68
62
62
62
0
0
0
0
65
65
66
65
65
66
65
65
68
62
0
0
64
64
64
70
64
64
71
71
65
65
65
65
65
0
0
0
0
62
0
64
66
66
66
71
71
66
66
66
64
0
0
0
0
0
0
65
65
65
65
65
71
71
64
64
69
63
63
63
0
0
0
64
66
66
66
71
71
66
66
66
64
0
62
0
63
63
63
69
64
64
71
71
65
65
65
65
65
0
0
0
0
0
62
68
65
65
66
65
65
66
65
65
0
0
0
0
0
0
0
65
65
65
65
65
71
71
64
64
70
64
64
64
0
0
0
64
64
66
71
71
71
71
66
64
64
0
62
0
62
62
62
68
64
64
71
66
66
66
66
66
66
0
0
0
0
0
0
0
65
65
66
65
65
66
65
65
0
0
0
0
0
0
0
66
66
66
66
66
66
71
64
64
70
64
64
64
0
0
0
0
64
64
64
64
64
64
64
64
68
62
0
0
61
61
61
67
64
64
66
66
65
65
65
65
65
0
0
0
0
0
0
0
65
65
66
65
65
66
65
65
0
0
0
0
0
0
0
65
65
65
65
65
66
66
64
64
67
61
61
61
0
0
0
0
64
64
64
64
64
64
64
64
0
0
0
0
0
0
0
0
64
64
64
66
65
65
65
65
0
0
0
0
0
0
0
0
65
65
66
65
65
66
65
65
0
0
0
0
0
0
0
0
65
65
65
65
66
64
64
64
0
0
0
0
0
0
0
0
0
67
70
70
69
68
67
0
0
0
0
0
0
0
0
0
0
68
64
64
68
0
0
0
0
0
0
0
0
0
0
0
0
65
66
65
65
66
65
0
0
0
0
0
0
0
0
0
0
0
0
0
64
64
0
0
0
0
0
0
0
0
0
0
0
61
64
64
63
62
61
0
0
0
0
0
0
0
0
0
0
62
0
0
62
0
0
0
0
0
0
0
0
0
0
0
0
0
0
0
0
0
0
0
0
0
0
0
0
0
0
0
0
0
0
0
0
0
0
0
0
0
0
0
0
0
0
0
0
61
64
64
63
62
61
0
0
0
0
0
0
0
0
0
0
0
62
62
0
0
0
0
0
0
0
0
0
0
0
0
0
0
0
0
0
0
0
0
0
0
0
0
0
0
0
0
0
0
0
0
0
0
0
0
0
0
0
0
0
0
0
0
0
61
64
64
63
62
61
0
0
0
0
0
0
0
0
0
0
0
0
0
0
0
0
0
0
0
0
0
0
0
0
0
0
0
0
0
0
0
0
0
0
0
0
0
0
0
0
0
0
0
0
0
0
0
0
0
0
0
0
0
0
0
0
0
72
72
72
72
72
72
72
72
0
0
0
0
0
0
0
0
0
0
0
0
0
0
0
0
0
0
0
0
0
0
0
0
0
61
62
63
64
64
61
0
0
0
0
0
0
0
0
0
0
0
0
0
0
0
0
0
0
0
0
0
0
0
0
72
73
73
73
73
73
73
73
73
72
0
0
0
0
0
0
0
0
0
72
72
72
72
72
72
72
0
0
0
0
0
0
0
0
61
62
63
64
64
61
0
0
0
0
0
0
0
0
72
72
72
72
72
74
62
0
0
0
0
0
0
0
0
72
73
75
75
75
75
75
75
75
75
73
72
0
0
0
0
0
0
0
72
73
73
73
73
73
73
73
72
0
0
0
0
0
0
0
61
62
63
64
64
61
0
0
0
0
0
0
0
72
73
73
73
73
74
73
73
62
0
0
0
0
0
0
72
73
75
75
51
76
51
51
76
51
75
75
73
72
0
0
0
0
0
72
73
77
77
75
75
75
75
75
73
72
0
0
0
0
0
0
67
68
69
70
70
67
0
0
0
0
0
0
72
73
75
75
75
75
74
77
77
68
72
0
0
0
0
0
72
73
75
51
51
76
51
51
76
51
51
75
73
72
0
0
0
0
0
78
77
77
76
51
51
51
51
75
75
73
72
0
0
0
72
78
78
78
78
78
78
78
78
72
0
0
0
72
73
75
75
51
51
51
51
76
77
77
78
0
0
0
0
0
72
73
75
51
51
76
51
51
76
51
51
75
73
72
0
61
61
61
67
78
77
76
76
51
51
51
51
51
75
73
72
0
0
62
68
77
77
77
77
77
77
77
77
73
72
0
0
72
73
75
51
51
51
51
51
76
76
77
78
67
61
61
61
0
72
73
75
51
51
76
51
51
76
51
51
75
73
72
0
64
64
64
70
78
77
79
76
76
76
76
76
76
75
73
72
0
62
73
77
77
76
79
79
79
79
76
77
77
73
72
0
72
73
75
76
76
76
76
76
76
79
77
78
68
62
62
62
0
72
73
75
51
51
76
51
51
76
51
51
74
74
72
0
64
64
64
70
78
77
79
79
51
51
51
51
51
75
73
72
0
74
73
77
76
76
76
79
79
76
76
76
77
73
72
0
72
73
75
51
51
51
51
51
79
79
77
78
69
63
63
63
0
72
73
77
76
76
76
79
79
76
76
76
77
73
74
0
63
63
63
69
78
77
79
79
51
51
51
51
51
75
73
72
0
72
74
74
51
51
76
51
51
76
51
51
75
73
72
0
72
73
75
51
51
51
51
51
79
79
77
78
70
64
64
64
0
72
73
77
77
76
79
79
79
79
76
77
77
73
62
0
62
62
62
68
78
77
79
76
76
76
76
76
76
75
73
72
0
72
73
75
51
51
76
51
51
76
51
51
75
73
72
0
72
73
75
76
76
76
76
76
76
79
77
78
70
64
64
64
0
0
72
73
77
77
77
77
77
77
77
77
68
62
0
0
61
61
61
67
78
77
76
76
51
51
51
51
51
75
73
72
0
72
73
75
51
51
76
51
51
76
51
51
75
73
72
0
72
73
75
51
51
51
51
51
76
76
77
78
67
61
61
61
0
0
0
72
78
78
78
78
78
78
78
78
72
0
0
0
0
0
0
0
78
77
77
76
51
51
51
51
75
75
73
72
0
72
73
75
51
51
76
51
51
76
51
51
75
73
72
0
72
73
75
75
51
51
51
51
76
77
77
78
0
0
0
0
0
0
0
0
0
67
70
70
69
68
67
0
0
0
0
0
0
0
0
0
72
68
77
77
74
75
75
75
75
73
72
0
0
72
73
75
75
51
76
51
51
76
51
75
75
73
72
0
0
72
73
75
75
75
75
75
77
77
73
72
0
0
0
0
0
0
0
0
0
61
64
64
63
62
61
0
0
0
0
0
0
0
0
0
0
62
73
73
74
73
73
73
73
72
0
0
0
0
72
73
75
75
75
75
75
75
75
75
73
72
0
0
0
0
72
73
73
73
73
73
73
73
72
0
0
0
0
0
0
0
0
0
0
61
64
64
63
62
61
0
0
0
0
0
0
0
0
0
0
0
62
74
72
72
72
72
72
0
0
0
0
0
0
72
73
73
73
73
73
73
73
73
72
0
0
0
0
0
0
72
72
72
72
72
72
72
0
0
0
0
0
0
0
0
0
0
0
61
64
64
63
62
61
0
0
0
0
0
0
0
0
0
0
0
0
0
0
0
0
0
0
0
0
0
0
0
0
0
72
72
72
72
72
72
72
72
0
0
0
0
0
0
0
0
0
0
0
0
0
0
0
0
0
0
0
0
0
0
63
63
63
67
70
70
69
68
67
0
0
0
0
0
0
0
0
0
0
0
0
0
61
80
61
0
0
0
0
0
0
0
0
0
0
0
0
0
0
0
0
0
0
0
0
0
0
0
0
0
0
61
80
61
0
0
0
0
0
0
0
0
0
0
63
0
61
61
61
61
61
61
61
61
0
0
0
0
0
0
0
0
0
0
0
0
61
80
62
62
62
62
0
0
0
0
0
0
0
0
0
0
0
0
0
0
0
0
0
0
0
0
0
0
0
61
80
61
0
0
0
0
0
0
0
0
0
62
62
62
62
81
61
61
61
61
81
67
0
0
0
0
0
0
0
0
0
0
0
0
67
80
68
69
69
62
63
63
0
0
0
0
0
82
82
82
82
82
82
0
0
0
0
0
0
0
0
0
0
67
80
67
0
0
0
0
0
0
0
0
0
62
69
61
62
62
81
61
61
81
81
67
61
0
0
0
0
0
0
0
0
0
0
61
61
61
61
61
61
62
0
63
0
0
0
0
0
82
83
83
83
83
82
0
0
0
0
0
0
0
0
61
61
61
61
61
61
0
0
0
0
0
0
0
0
62
69
61
67
68
81
64
64
81
57
84
61
0
0
0
0
0
0
0
0
0
67
67
67
67
67
67
62
62
61
63
0
0
0
0
0
82
83
83
83
83
82
0
0
0
0
0
0
61
67
67
84
67
84
67
67
67
0
0
0
0
0
0
61
62
68
61
67
81
81
64
64
81
81
67
61
67
61
61
0
0
82
82
82
81
81
81
81
81
81
68
62
81
61
67
0
0
0
0
0
81
81
81
81
81
81
0
0
0
0
0
67
61
81
81
57
81
57
81
81
81
81
82
82
82
0
0
80
80
80
61
67
81
81
64
64
81
57
84
61
80
80
80
0
0
82
83
83
81
81
81
81
81
81
81
81
61
61
70
0
0
0
0
67
81
81
64
64
81
81
67
0
0
0
0
68
61
61
81
81
81
81
81
81
81
81
83
83
82
0
0
61
61
67
61
67
81
81
64
64
81
81
67
61
67
61
61
0
0
82
83
83
81
64
64
64
64
64
64
61
61
61
70
0
0
0
61
67
81
81
64
64
81
81
67
61
0
0
0
69
61
61
61
64
64
64
64
64
64
81
83
83
82
0
0
0
0
0
61
67
81
81
64
64
81
81
67
61
0
0
0
0
0
82
83
83
81
64
64
64
64
64
64
61
61
61
69
61
61
67
61
67
81
81
64
64
81
81
67
61
67
61
61
70
61
61
61
64
64
64
64
64
64
81
83
83
82
0
0
0
0
0
0
67
81
81
64
64
81
81
67
0
0
0
0
0
0
82
83
83
81
81
81
81
81
81
81
81
61
61
68
80
80
80
61
84
57
81
64
64
81
81
67
61
80
80
80
70
61
61
81
81
81
81
81
81
81
81
83
83
82
0
0
0
0
0
0
0
81
81
81
81
81
81
0
0
0
0
0
0
0
82
82
82
81
81
81
81
57
81
57
81
81
61
67
61
61
67
61
67
81
81
64
64
81
81
67
61
68
62
61
67
61
81
62
68
81
81
81
81
81
81
82
82
82
0
0
0
0
0
0
0
82
83
83
83
83
82
0
0
0
0
0
0
0
0
0
0
0
67
67
67
84
67
84
67
67
61
0
0
0
0
61
84
57
81
64
64
81
68
67
61
69
62
0
63
61
62
62
67
67
67
67
67
67
0
0
0
0
0
0
0
0
0
0
0
82
83
83
83
83
82
0
0
0
0
0
0
0
0
0
0
0
0
61
61
61
61
61
61
0
0
0
0
0
0
61
67
81
81
61
61
81
62
62
61
69
62
0
63
0
62
61
61
61
61
61
61
0
0
0
0
0
0
0
0
0
0
0
0
82
82
82
82
82
82
0
0
0
0
0
0
0
0
0
0
0
0
0
67
80
67
0
0
0
0
0
0
0
0
0
67
81
61
61
61
61
81
62
62
62
62
0
63
63
62
69
69
68
80
67
0
0
0
0
0
0
0
0
0
0
0
0
0
0
0
0
0
0
0
0
0
0
0
0
0
0
0
0
0
0
0
0
61
80
61
0
0
0
0
0
0
0
0
0
61
61
61
61
61
61
61
61
0
63
0
0
0
0
62
62
62
62
80
61
0
0
0
0
0
0
0
0
0
0
0
0
0
0
0
0
0
0
0
0
0
0
0
0
0
0
0
0
0
0
0
0
61
80
61
0
0
0
0
0
0
0
0
0
0
67
68
69
70
70
67
63
63
63
0
0
0
0
0
0
0
61
80
61
0
0
0
0
0
0
0
0
0
0
63
63
63
67
70
70
69
68
67
0
0
0
0
0
0
0
0
0
0
0
0
0
61
80
61
0
0
0
0
0
0
0
0
0
85
84
57
58
58
57
84
85
0
0
0
0
0
0
0
0
0
61
80
61
0
0
0
0
0
0
0
0
0
0
63
0
61
61
61
61
61
61
61
61
0
0
0
0
0
0
0
0
0
0
0
0
61
80
62
62
62
62
0
0
0
0
0
0
85
84
57
58
58
57
84
85
0
0
0
0
0
0
0
0
0
61
80
61
0
0
0
0
0
0
0
0
0
62
62
62
62
81
61
61
61
61
81
67
0
0
0
0
0
0
0
0
0
0
0
0
67
80
68
69
69
62
63
63
0
0
0
85
84
57
57
58
58
57
57
84
85
0
0
0
0
0
0
0
0
67
80
67
0
0
0
0
0
0
0
0
0
62
69
61
62
62
81
61
61
81
86
87
61
0
0
0
0
0
85
85
85
85
0
61
61
61
61
61
61
62
0
63
0
0
0
85
84
57
58
58
58
58
57
84
85
0
0
0
0
0
0
61
87
61
87
61
61
0
85
85
85
85
0
0
0
62
69
61
67
68
81
64
64
86
58
57
87
0
0
0
85
85
84
84
84
84
87
67
67
67
67
67
62
62
61
63
0
0
0
85
84
57
58
58
58
58
57
84
85
0
0
0
0
61
67
87
57
87
57
87
67
87
84
84
84
84
85
85
61
62
68
61
67
81
81
64
64
81
86
87
61
67
61
61
84
84
57
57
57
88
86
81
81
81
81
68
62
81
61
67
0
0
0
85
84
88
88
88
88
88
88
84
85
0
0
0
67
61
81
86
58
86
58
86
81
86
88
57
57
57
84
84
80
80
80
61
67
81
81
64
64
86
58
57
87
80
80
80
57
57
57
58
58
88
86
81
81
81
81
81
81
61
61
70
0
0
0
0
87
86
86
89
89
86
86
87
0
0
0
0
68
61
61
81
86
81
86
81
81
86
88
58
58
57
57
57
61
61
67
61
67
81
81
64
64
81
86
87
61
67
61
61
58
58
58
58
58
88
89
64
64
64
64
64
61
61
61
70
0
0
0
61
67
81
81
64
64
81
81
67
61
0
0
0
69
61
61
61
64
64
64
64
64
89
88
58
58
58
58
58
0
0
0
61
67
81
81
64
64
81
81
67
61
0
0
0
58
58
58
58
58
88
89
64
64
64
64
64
61
61
61
69
61
61
67
61
87
86
81
64
64
81
81
67
61
67
61
61
70
61
61
61
64
64
64
64
64
89
88
58
58
58
58
58
0
0
0
0
87
86
86
89
89
86
86
87
0
0
0
0
57
57
57
58
58
88
86
81
81
86
81
86
81
61
61
68
80
80
80
87
57
58
86
64
64
81
81
67
61
80
80
80
70
61
61
81
81
81
81
81
81
86
88
58
58
57
57
57
0
0
0
85
84
88
88
88
88
88
88
84
85
0
0
0
84
84
57
57
57
88
86
81
86
58
86
58
86
81
61
67
61
61
67
61
87
86
81
64
64
81
81
67
61
68
62
61
67
61
81
62
68
81
81
81
81
86
88
57
57
57
84
84
0
0
0
85
84
57
58
58
58
58
57
84
85
0
0
0
85
85
84
84
84
84
87
67
87
57
87
57
87
67
61
0
0
0
0
87
57
58
86
64
64
81
68
67
61
69
62
0
63
61
62
62
67
67
67
67
67
87
84
84
84
84
85
85
0
0
0
85
84
57
58
58
58
58
57
84
85
0
0
0
0
0
85
85
85
85
0
61
61
87
61
87
61
0
0
0
0
0
0
61
87
86
81
61
61
81
62
62
61
69
62
0
63
0
62
61
61
61
61
61
61
0
85
85
85
85
0
0
0
0
0
85
84
57
57
58
58
57
57
84
85
0
0
0
0
0
0
0
0
0
0
0
67
80
67
0
0
0
0
0
0
0
0
0
67
81
61
61
61
61
81
62
62
62
62
0
63
63
62
69
69
68
80
67
0
0
0
0
0
0
0
0
0
0
0
0
85
84
57
58
58
57
84
85
0
0
0
0
0
0
0
0
0
0
0
0
61
80
61
0
0
0
0
0
0
0
0
0
61
61
61
61
61
61
61
61
0
63
0
0
0
0
62
62
62
62
80
61
0
0
0
0
0
0
0
0
0
0
0
0
85
84
57
58
58
57
84
85
0
0
0
0
0
0
0
0
0
0
0
0
61
80
61
0
0
0
0
0
0
0
0
0
0
67
68
69
70
70
67
63
63
63
0
0
0
0
0
0
0
61
80
61
0
0
0
0
0
0
0
0
0
0
63
63
63
67
70
70
69
68
67
0
0
0
0
0
0
0
0
0
0
0
0
0
61
80
61
0
0
0
0
0
0
0
0
0
85
84
57
58
58
57
84
85
0
0
0
0
0
0
0
0
0
61
80
61
0
0
0
0
0
0
0
0
0
0
63
0
61
61
61
61
61
61
61
61
0
0
0
0
0
0
0
0
0
0
0
0
61
80
62
62
62
62
0
0
0
0
0
0
85
84
57
58
58
57
84
85
0
0
0
0
0
0
0
0
0
61
80
61
0
0
0
0
0
0
0
0
0
62
62
62
62
81
61
61
61
61
81
67
0
0
0
0
0
0
0
0
0
0
0
0
67
80
68
69
69
62
63
63
0
0
0
0
85
84
57
58
58
57
84
85
0
0
0
0
0
0
0
0
0
67
80
67
0
0
0
0
0
0
0
0
0
62
69
61
62
62
81
61
61
81
81
67
61
0
0
0
0
0
0
0
0
0
0
61
61
61
61
61
61
62
0
63
0
0
0
0
0
85
82
58
58
84
85
0
0
0
0
0
0
0
0
61
61
61
61
61
61
0
0
0
0
0
0
0
0
62
69
61
67
68
81
64
64
81
57
84
61
0
0
0
85
85
85
0
0
0
67
67
67
67
67
67
62
62
61
63
0
0
0
0
0
85
82
58
58
84
85
0
0
0
0
0
0
61
67
67
84
67
84
67
67
67
0
0
0
85
85
85
61
62
68
61
67
81
81
64
64
81
81
67
61
67
61
61
84
84
84
85
85
86
81
81
81
81
81
68
62
81
61
67
0
0
0
0
0
86
88
88
88
88
86
0
0
0
0
0
67
61
81
81
57
81
57
81
81
81
86
85
85
84
84
84
80
80
80
61
67
81
81
64
64
81
57
84
61
80
80
80
57
57
57
84
84
88
86
81
81
81
81
81
81
61
61
70
0
0
0
0
67
81
86
89
89
86
81
67
0
0
0
0
68
61
61
81
81
81
81
81
81
86
88
82
82
57
57
57
61
61
67
61
67
81
81
64
64
81
81
67
61
67
61
61
58
58
58
58
58
88
89
64
64
64
64
64
61
61
61
70
0
0
0
61
67
81
81
64
64
81
81
67
61
0
0
0
69
61
61
61
64
64
64
64
64
89
88
58
58
58
58
58
0
0
0
61
67
81
81
64
64
81
81
67
61
0
0
0
58
58
58
58
58
88
89
64
64
64
64
64
61
61
61
69
61
61
67
61
67
81
81
64
64
81
81
67
61
67
61
61
70
61
61
61
64
64
64
64
64
89
88
58
58
58
58
58
0
0
0
0
67
81
86
89
89
86
81
67
0
0
0
0
57
57
57
82
82
88
86
81
81
81
81
81
81
61
61
68
80
80
80
61
84
57
81
64
64
81
81
67
61
80
80
80
70
61
61
81
81
81
81
81
81
86
88
84
84
57
57
57
0
0
0
0
0
86
88
88
88
88
86
0
0
0
0
0
84
84
84
85
85
86
81
81
81
57
81
57
81
81
61
67
61
61
67
61
67
81
81
64
64
81
81
67
61
68
62
61
67
61
81
62
68
81
81
81
81
81
86
85
85
84
84
84
0
0
0
0
0
85
84
58
58
82
85
0
0
0
0
0
85
85
85
0
0
0
67
67
67
84
67
84
67
67
61
0
0
0
0
61
84
57
81
64
64
81
68
67
61
69
62
0
63
61
62
62
67
67
67
67
67
67
0
0
0
85
85
85
0
0
0
0
0
85
84
58
58
82
85
0
0
0
0
0
0
0
0
0
0
0
0
61
61
61
61
61
61
0
0
0
0
0
0
61
67
81
81
61
61
81
62
62
61
69
62
0
63
0
62
61
61
61
61
61
61
0
0
0
0
0
0
0
0
0
0
0
85
84
57
58
58
57
84
85
0
0
0
0
0
0
0
0
0
0
0
0
67
80
67
0
0
0
0
0
0
0
0
0
67
81
61
61
61
61
81
62
62
62
62
0
63
63
62
69
69
68
80
67
0
0
0
0
0
0
0
0
0
0
0
0
85
84
57
58
58
57
84
85
0
0
0
0
0
0
0
0
0
0
0
0
61
80
61
0
0
0
0
0
0
0
0
0
61
61
61
61
61
61
61
61
0
63
0
0
0
0
62
62
62
62
80
61
0
0
0
0
0
0
0
0
0
0
0
0
85
84
57
58
58
57
84
85
0
0
0
0
0
0
0
0
0
0
0
0
61
80
61
0
0
0
0
0
0
0
0
0
0
67
68
69
70
70
67
63
63
63
0
0
0
0
0
0
0
61
80
61
0
0
0
0
0
0
0
0
0
0
0
0
0
61
64
64
63
62
61
0
0
0
0
0
0
0
0
0
0
61
64
64
63
62
61
0
0
0
0
0
0
0
0
0
0
0
0
0
61
80
61
0
0
0
0
0
0
0
0
0
0
61
80
61
0
0
0
0
0
0
0
0
0
0
0
61
61
70
64
64
63
62
61
0
0
0
0
0
0
0
0
0
0
61
64
64
63
62
70
61
61
0
0
0
0
0
0
0
0
0
0
0
61
80
61
0
0
0
0
0
0
0
0
0
0
61
80
61
0
0
0
0
0
0
0
0
0
0
61
61
70
64
64
64
63
62
61
0
0
0
0
0
0
0
0
0
0
61
64
64
63
62
64
70
61
61
0
0
0
0
0
0
0
0
0
0
61
80
61
0
0
0
0
0
0
0
0
0
0
61
80
61
0
0
0
0
0
0
0
0
0
61
61
61
61
70
64
64
63
62
61
0
0
0
0
0
0
0
0
0
0
61
64
64
63
62
70
61
61
61
61
0
0
0
0
0
0
0
0
0
61
80
61
0
0
0
0
0
0
0
0
0
0
61
80
61
0
0
0
0
0
0
0
0
0
61
70
61
61
61
70
70
69
68
67
0
0
0
0
0
0
0
0
0
0
67
70
70
69
68
61
61
61
70
61
0
0
0
0
0
0
0
0
0
61
80
61
0
0
0
0
0
0
0
0
0
0
61
80
61
0
0
0
0
0
0
0
0
61
70
64
70
61
61
61
61
61
61
61
61
61
61
61
61
61
61
61
61
61
61
61
61
61
61
61
61
70
64
70
61
0
0
0
0
0
0
0
0
61
80
61
67
61
61
61
61
61
61
61
61
67
61
80
61
0
0
0
0
0
0
0
0
62
62
62
62
68
61
80
80
80
80
80
80
80
80
80
80
80
80
80
80
80
80
80
80
80
80
61
70
64
64
64
64
0
0
0
0
0
0
0
0
61
80
61
70
64
64
64
64
62
62
62
62
68
61
80
61
0
0
0
0
0
0
0
0
63
63
63
63
69
61
80
61
61
61
61
61
61
61
61
61
61
61
61
61
61
61
61
61
61
80
61
70
64
64
64
64
0
0
0
0
0
0
0
0
61
80
61
70
64
64
64
64
63
63
63
63
69
61
80
61
0
0
0
0
0
0
0
0
64
64
64
64
70
61
80
61
0
0
0
0
0
0
0
0
0
0
0
0
0
0
0
0
61
80
61
69
63
63
63
63
61
61
61
61
61
61
61
61
61
80
61
69
63
63
63
63
64
64
64
64
70
61
80
61
61
61
61
61
61
61
61
61
64
64
64
64
70
61
80
61
0
0
0
0
0
0
0
0
0
0
0
0
0
0
0
0
61
80
61
68
62
62
62
62
80
80
80
80
80
80
80
80
80
80
61
68
62
62
62
62
64
64
64
64
70
61
80
80
80
80
80
80
80
80
80
80
61
61
61
61
67
61
80
61
0
0
0
0
0
0
0
0
0
0
0
0
0
0
0
0
61
80
61
67
61
61
61
61
61
61
61
61
61
61
61
61
61
61
61
61
70
64
70
61
61
70
64
70
61
61
61
61
61
61
61
61
61
61
61
61
0
0
0
0
0
61
80
61
0
0
0
0
0
0
0
0
0
0
0
0
0
0
0
0
61
80
61
0
0
0
0
0
0
0
0
0
0
67
68
69
70
70
61
61
61
70
61
0
0
61
70
61
61
61
68
69
70
70
67
0
0
0
0
0
0
0
0
0
0
61
80
61
0
0
0
0
0
0
0
0
0
0
0
0
0
0
0
0
61
80
61
0
0
0
0
0
0
0
0
0
0
61
62
63
64
64
70
61
61
61
61
0
0
61
61
61
61
70
62
63
64
64
61
0
0
0
0
0
0
0
0
0
0
61
80
61
0
0
0
0
0
0
0
0
0
0
0
0
0
0
0
0
61
80
61
0
0
0
0
0
0
0
0
0
0
61
62
63
64
64
64
70
61
61
0
0
0
0
61
61
70
64
62
63
64
64
61
0
0
0
0
0
0
0
0
0
0
61
80
61
0
0
0
0
0
0
0
0
0
0
0
0
0
0
0
0
61
80
61
0
0
0
0
0
0
0
0
0
0
61
62
63
64
64
70
61
61
0
0
0
0
0
0
61
61
70
62
63
64
64
61
0
0
0
0
0
0
0
0
0
0
61
80
61
0
0
0
0
0
0
0
0
0
0
0
0
0
0
0
0
61
80
61
0
0
0
0
0
0
0
0
0
0
61
62
63
64
64
61
0
0
0
0
0
0
0
0
0
0
61
62
63
64
64
61
0
0
0
0
0
50
50
50
50
56
56
57
58
58
57
56
56
50
50
50
50
50
50
50
50
56
56
57
58
58
57
56
56
50
50
50
50
50
50
50
50
50
50
50
50
50
50
50
50
50
50
50
50
50
50
50
50
50
50
50
50
50
50
50
50
50
50
50
50
50
50
52
52
59
59
60
57
57
60
59
59
52
52
50
50
50
50
52
52
59
59
60
57
57
60
59
59
52
52
50
50
50
50
52
52
52
52
52
52
52
52
52
52
52
52
50
50
50
50
52
52
52
52
52
52
52
52
52
52
52
52
50
50
50
52
50
52
52
59
59
60
60
59
59
52
52
50
52
50
50
52
50
52
52
59
59
60
60
59
59
52
52
50
52
50
50
52
50
52
52
52
52
52
52
52
52
52
52
50
52
50
50
52
50
52
52
52
52
52
52
52
52
52
52
50
52
50
50
52
52
50
52
52
59
59
59
59
52
52
50
52
52
50
50
52
52
50
52
52
59
59
59
59
52
52
50
52
52
50
50
52
52
50
52
52
52
52
52
52
52
52
50
52
52
50
50
52
52
50
52
52
52
52
52
52
52
52
50
52
52
50
56
59
52
52
50
52
52
52
52
52
52
50
52
52
52
50
50
52
52
52
50
52
52
52
52
52
52
50
52
52
59
56
50
52
52
52
50
52
52
52
52
52
52
50
52
52
59
56
56
59
52
52
50
52
52
52
52
52
52
50
52
52
52
50
56
59
59
52
52
50
52
52
52
52
50
52
52
52
52
50
50
52
52
52
52
50
52
52
52
52
50
52
52
59
59
56
50
52
52
52
52
50
52
52
52
52
50
52
52
59
59
56
56
59
59
52
52
50
52
52
52
52
50
52
52
52
52
50
57
60
59
59
52
52
50
52
52
50
52
52
52
52
52
50
50
52
52
52
52
52
50
52
52
50
52
52
59
59
60
57
50
52
52
52
52
52
50
52
52
50
52
52
59
59
60
57
57
60
59
59
52
52
50
52
52
50
52
52
52
52
52
50
58
57
60
59
52
52
52
50
50
52
52
52
52
52
52
50
50
52
52
52
52
52
52
50
50
52
52
52
59
60
57
58
50
52
52
52
52
52
52
50
50
52
52
52
59
60
57
58
58
57
60
59
52
52
52
50
50
52
52
52
52
52
52
50
58
57
60
59
52
52
52
50
50
52
52
52
52
52
52
50
50
52
52
52
52
52
52
50
50
52
52
52
59
60
57
58
50
52
52
52
52
52
52
50
50
52
52
52
59
60
57
58
58
57
60
59
52
52
52
50
50
52
52
52
52
52
52
50
57
60
59
59
52
52
50
52
52
50
52
52
52
52
52
50
50
52
52
52
52
52
50
52
52
50
52
52
59
59
60
57
50
52
52
52
52
52
50
52
52
50
52
52
59
59
60
57
57
60
59
59
52
52
50
52
52
50
52
52
52
52
52
50
56
59
59
52
52
50
52
52
52
52
50
52
52
52
52
50
50
52
52
52
52
50
52
52
52
52
50
52
52
59
59
56
50
52
52
52
52
50
52
52
52
52
50
52
52
59
59
56
56
59
59
52
52
50
52
52
52
52
50
52
52
52
52
50
56
59
52
52
50
52
52
52
52
52
52
50
52
52
52
50
50
52
52
52
50
52
52
52
52
52
52
50
52
52
59
56
50
52
52
52
50
52
52
52
52
52
52
50
52
52
59
56
56
59
52
52
50
52
52
52
52
52
52
50
52
52
52
50
50
52
52
50
52
52
52
52
52
52
52
52
50
52
52
50
50
52
52
50
52
52
52
52
52
52
52
52
50
52
52
50
50
52
52
50
52
52
59
59
59
59
52
52
50
52
52
50
50
52
52
50
52
52
59
59
59
59
52
52
50
52
52
50
50
52
50
52
52
52
52
52
52
52
52
52
52
50
52
50
50
52
50
52
52
52
52
52
52
52
52
52
52
50
52
50
50
52
50
52
52
59
59
60
60
59
59
52
52
50
52
50
50
52
50
52
52
59
59
60
60
59
59
52
52
50
52
50
50
50
52
52
52
52
52
52
52
52
52
52
52
52
50
50
50
50
52
52
52
52
52
52
52
52
52
52
52
52
50
50
50
50
52
52
59
59
60
57
57
60
59
59
52
52
50
50
50
50
52
52
59
59
60
57
57
60
59
59
52
52
50
50
50
50
50
50
50
50
50
50
50
50
50
50
50
50
50
50
50
50
50
50
50
50
50
50
50
50
50
50
50
50
50
50
50
50
50
50
56
56
57
58
58
57
56
56
50
50
50
50
50
50
50
50
56
56
57
58
58
57
56
56
50
50
50
50
