P2
100 100
255
50
50
50
50
50
50
50
50
50
51
52
52
52
52
52
52
52
52
52
52
52
52
52
52
52
52
53
52
52
54
54
54
55
54
54
54
54
52
56
57
58
59
60
61
61
62
63
63
63
64
64
64
64
64
63
65
63
66
66
58
52
52
52
55
55
54
55
67
68
69
70
51
69
69
69
69
69
69
69
69
69
69
69
69
69
69
69
69
71
71
71
71
71
71
71
71
71
71
71
71
50
50
50
50
50
50
50
50
50
51
52
52
52
52
52
52
52
52
52
52
52
52
52
52
52
53
53
52
53
54
54
55
55
54
54
54
53
72
57
60
73
66
62
64
64
74
74
74
74
75
75
75
75
75
75
74
76
74
64
74
66
57
72
51
52
77
52
57
67
54
70
51
54
69
69
69
69
69
69
69
69
69
69
69
69
69
69
69
71
71
71
71
71
71
71
71
71
71
69
69
50
50
50
50
50
50
50
50
50
51
51
52
52
52
52
52
52
52
52
52
52
52
52
52
52
53
52
52
55
55
52
52
54
54
54
52
57
59
60
73
60
62
76
64
63
78
62
74
75
79
79
79
80
79
79
79
79
75
75
75
75
66
57
51
57
57
68
56
81
54
69
52
55
69
69
71
69
69
69
69
69
69
69
69
69
69
69
69
69
69
69
69
69
69
69
71
71
71
71
71
50
50
50
50
50
50
50
50
50
50
50
52
52
52
52
52
52
52
52
52
52
52
52
52
52
52
52
52
53
53
53
53
55
53
52
57
60
73
66
66
62
79
75
64
64
74
75
80
82
83
84
85
84
82
80
82
82
80
80
80
80
80
65
60
60
60
66
66
86
55
69
55
51
69
69
69
69
69
69
69
69
69
69
69
69
69
69
69
69
69
69
69
69
69
69
69
69
69
69
69
50
50
50
50
50
50
50
50
50
50
50
52
52
52
52
52
52
52
52
52
52
52
52
52
52
52
52
52
52
53
53
52
52
72
57
66
63
64
62
87
74
75
76
75
79
80
82
85
88
89
90
90
90
90
88
88
88
91
88
88
80
75
75
64
66
66
92
64
64
81
55
54
52
69
69
69
69
69
69
69
71
69
69
69
69
69
69
69
69
69
69
69
69
69
69
69
69
69
71
71
50
50
50
50
50
50
50
50
50
51
50
50
52
52
52
52
52
52
52
52
52
52
52
52
52
52
52
52
52
52
52
56
57
60
62
74
75
75
64
74
75
75
75
93
80
80
88
90
90
90
90
90
90
90
90
90
89
88
80
75
74
75
79
75
75
74
64
74
74
76
65
81
57
51
52
52
55
70
69
69
69
69
69
69
69
69
69
69
69
69
69
71
69
69
69
69
69
69
69
69
50
50
50
50
50
50
50
50
50
51
50
51
52
52
52
52
52
52
52
52
52
52
52
52
52
50
52
52
94
57
60
73
62
95
75
80
80
79
74
79
79
75
80
80
75
80
90
90
90
90
90
90
90
90
90
88
80
75
74
75
80
83
80
93
93
80
80
80
75
76
65
65
64
64
96
64
97
98
68
54
69
69
69
69
69
69
69
69
69
69
69
69
69
69
69
69
69
69
69
69
50
50
50
50
50
50
50
50
50
50
50
52
51
51
51
51
52
52
52
52
51
52
52
52
50
50
50
57
60
62
62
63
64
75
80
93
80
79
75
79
75
79
80
75
63
85
90
90
90
89
90
90
90
91
88
79
64
76
75
80
88
85
80
80
88
88
83
80
80
75
64
65
99
100
100
75
75
100
76
67
54
69
69
69
69
69
69
69
69
69
69
69
69
69
69
71
69
69
69
71
50
50
50
50
50
50
50
50
50
50
50
52
52
52
51
51
50
52
52
50
50
52
52
52
68
57
61
66
62
63
74
101
75
75
75
75
79
79
79
80
75
79
80
79
92
80
90
89
88
88
88
88
88
83
75
92
64
76
75
102
88
83
88
88
90
88
83
82
80
80
75
66
81
99
100
64
64
80
80
100
60
54
69
69
69
71
69
69
69
69
69
69
69
69
69
69
69
71
69
69
50
50
50
50
50
50
50
50
50
50
50
50
50
51
51
50
50
52
50
50
50
52
52
57
66
62
63
64
64
64
95
64
74
74
101
75
75
79
80
80
75
80
80
80
64
80
102
83
80
82
102
82
102
79
65
78
64
75
80
83
83
85
88
88
88
84
102
102
102
80
80
75
65
65
93
80
80
80
80
80
64
68
69
69
69
69
69
69
69
69
69
69
69
69
69
69
69
69
69
69
50
50
50
50
50
50
50
50
50
50
50
50
50
50
94
50
50
50
50
50
52
52
57
63
74
64
64
64
62
62
63
64
74
74
74
74
75
75
75
74
79
79
80
80
75
82
80
80
80
80
82
80
80
64
66
64
64
80
102
83
85
88
88
88
84
82
102
83
88
83
80
83
84
83
85
85
80
80
88
83
100
66
54
69
69
69
69
69
69
69
69
69
69
69
69
69
69
69
69
69
50
50
50
50
50
50
50
50
50
50
50
50
50
94
94
51
50
50
50
72
52
56
66
75
75
64
92
61
66
62
95
74
74
64
74
75
75
79
80
80
79
79
80
82
80
79
79
79
75
83
88
75
75
78
64
75
75
102
84
84
88
88
91
88
80
80
80
83
82
80
80
85
88
88
88
88
80
64
80
88
103
100
67
70
69
69
69
69
69
69
69
69
69
69
71
69
69
69
69
69
50
50
50
50
50
50
50
50
50
50
50
50
50
50
50
50
50
50
72
56
104
58
65
64
92
62
66
66
66
87
63
95
63
64
75
75
79
80
79
75
79
80
80
79
79
79
79
80
84
88
85
80
75
64
75
80
80
88
84
85
88
90
88
82
93
80
80
80
80
83
84
83
83
88
88
91
88
75
75
85
88
85
75
52
69
69
69
69
69
69
69
69
69
69
69
69
69
69
69
69
50
50
50
50
50
50
50
50
50
50
52
51
50
51
52
52
50
72
56
56
57
66
63
78
65
63
63
63
78
62
62
62
65
74
79
79
74
75
79
80
80
79
75
79
105
93
82
91
88
102
80
79
79
75
80
80
83
88
88
88
90
90
88
80
80
80
80
80
88
88
88
83
83
84
88
88
88
80
75
83
88
85
106
66
69
69
69
69
69
69
69
69
69
69
69
69
69
69
69
69
50
50
50
50
50
50
50
50
50
50
51
51
51
52
52
51
51
50
72
57
61
65
64
74
79
75
74
79
79
74
75
75
75
79
75
64
75
80
80
79
75
74
79
80
79
102
90
88
80
80
75
79
83
80
82
88
88
88
88
89
90
90
88
83
80
83
80
88
88
88
88
88
90
90
90
90
90
90
85
88
88
83
106
75
55
69
69
69
69
69
69
69
69
69
69
69
69
69
69
69
50
50
50
50
50
50
50
50
50
50
51
51
51
50
51
51
50
72
50
58
78
64
79
80
80
80
82
80
80
80
75
74
64
64
74
75
80
82
79
74
74
80
107
80
84
88
88
80
75
79
93
82
88
102
84
88
88
88
88
90
90
90
88
88
88
88
88
88
88
88
90
90
90
108
109
108
90
90
90
88
102
80
80
80
57
69
69
69
69
69
69
69
69
69
69
69
69
69
69
69
50
50
50
50
50
50
50
50
50
50
51
51
51
51
51
50
50
72
104
60
64
80
84
102
102
88
84
80
75
64
64
64
64
76
83
88
83
80
75
74
83
88
85
88
91
88
80
75
75
79
84
88
88
88
88
88
88
88
88
90
90
90
88
88
88
90
88
88
88
90
90
90
110
108
108
109
109
90
90
89
102
80
83
102
60
54
69
69
69
69
69
69
69
69
69
69
69
69
69
69
50
50
50
50
50
50
50
50
50
50
51
50
51
51
52
50
50
72
60
78
93
84
91
88
88
88
88
83
84
80
75
75
80
84
88
88
83
80
102
88
89
88
91
91
83
79
79
80
80
83
90
90
88
88
88
90
88
88
90
108
108
90
89
90
90
90
90
90
90
90
90
90
108
90
90
109
108
90
90
88
83
83
88
103
60
55
69
69
69
69
69
69
69
69
69
69
69
69
69
69
50
50
50
50
50
50
50
50
50
50
52
50
52
52
50
50
50
57
78
64
80
91
91
88
88
88
80
80
82
83
88
88
90
90
90
89
89
89
90
90
90
90
89
102
93
80
83
83
88
90
90
90
90
89
90
90
89
90
90
109
108
90
90
90
90
90
90
90
90
90
90
108
109
90
90
108
90
108
90
89
88
85
88
88
66
51
69
69
69
69
69
69
69
69
69
69
69
69
69
71
50
50
50
50
50
50
50
50
50
50
94
50
52
51
50
50
72
60
65
93
84
90
89
88
88
80
84
88
90
90
108
108
109
109
110
90
90
90
90
90
90
90
88
88
90
88
88
90
90
90
90
90
90
90
90
90
90
90
90
108
110
90
110
90
90
90
90
90
90
109
109
109
109
108
90
108
90
90
108
90
88
88
88
83
92
81
52
69
69
69
69
69
69
69
69
69
69
69
69
69
50
50
50
50
50
94
94
50
50
50
50
94
52
50
50
50
57
92
76
82
88
90
88
88
102
83
89
90
110
90
90
109
109
109
109
109
90
90
90
91
90
90
90
90
89
90
90
108
110
90
90
90
90
90
90
90
90
90
90
90
90
90
90
90
90
90
90
90
109
109
109
109
109
109
90
90
90
90
108
90
89
88
90
80
66
66
58
55
69
69
69
69
69
69
69
69
69
69
69
69
50
50
50
50
50
50
94
94
50
50
50
50
50
50
50
72
73
76
80
84
88
88
88
83
82
88
90
89
88
90
90
108
108
109
109
109
109
108
90
90
90
90
90
90
90
90
108
108
108
90
90
90
110
90
108
90
90
90
90
90
90
90
88
88
90
90
109
109
109
109
109
109
109
109
90
90
90
90
108
90
89
90
88
75
66
61
66
51
70
69
69
69
69
69
69
71
69
69
69
69
50
50
50
50
50
94
94
94
94
52
52
94
94
52
52
57
64
80
83
85
88
88
88
80
88
90
88
88
88
90
90
90
90
108
109
109
109
109
109
108
90
90
90
90
90
90
90
90
90
90
90
108
108
90
109
90
90
90
90
90
88
83
111
111
88
90
90
108
109
109
109
109
109
109
90
90
90
90
108
90
90
90
88
75
92
66
81
60
77
69
69
69
69
69
69
71
69
69
69
69
51
51
51
52
94
94
52
94
52
52
52
52
52
52
56
78
75
102
88
84
90
88
88
88
90
90
91
88
80
75
75
102
88
90
90
90
109
109
109
108
90
91
90
90
90
90
90
90
90
90
90
109
110
90
108
90
90
90
88
88
80
105
105
105
80
83
88
90
109
109
109
109
109
109
110
90
90
90
108
90
90
88
80
75
64
78
66
66
68
54
69
69
69
69
69
69
69
69
69
69
52
52
52
52
52
52
52
52
52
52
52
52
52
50
66
74
93
83
88
85
89
89
90
90
90
88
80
75
64
92
75
80
83
88
88
90
90
90
90
90
90
88
88
90
90
90
90
108
109
108
110
110
90
110
90
90
90
88
111
105
101
101
101
101
101
112
80
88
90
109
109
109
109
109
108
90
90
90
108
90
90
88
64
64
64
63
66
66
57
77
69
69
69
69
69
69
69
69
69
69
53
53
53
53
53
52
52
52
52
52
52
52
52
58
75
74
82
88
90
90
90
89
90
90
89
84
93
64
78
62
64
75
80
83
88
90
90
90
91
91
91
88
88
91
90
90
90
110
109
110
108
90
90
90
90
90
113
80
101
64
95
95
114
114
95
115
101
105
113
116
90
109
109
109
109
110
90
110
90
90
90
88
64
78
75
75
96
60
58
51
70
69
69
69
69
69
69
69
69
69
52
52
53
53
53
53
53
53
53
52
52
52
52
78
80
80
80
88
90
90
90
89
110
90
90
88
83
80
75
80
102
88
88
88
88
88
88
88
88
88
88
88
90
90
110
90
90
90
90
90
90
90
116
88
113
82
101
95
114
114
117
117
117
87
117
117
95
101
112
111
116
90
109
109
109
108
90
90
90
90
90
88
80
64
64
75
64
60
58
57
55
70
69
69
69
69
69
69
69
69
53
52
52
52
52
52
52
52
52
52
52
53
50
75
80
80
80
88
90
110
90
110
108
90
90
90
90
90
89
90
91
89
89
90
90
91
88
88
88
88
88
89
90
108
108
110
90
90
91
91
88
113
107
111
105
101
114
114
114
87
118
118
119
119
120
119
87
114
115
105
111
116
90
109
109
109
90
90
90
110
90
88
83
80
75
76
76
66
60
67
51
55
54
69
69
69
69
69
69
69
53
53
53
53
53
53
52
52
52
52
52
52
57
80
80
80
102
91
90
90
109
109
108
90
90
90
91
91
90
108
109
90
90
90
91
91
88
88
88
88
91
116
90
90
90
90
116
88
107
107
111
105
105
101
121
114
114
117
118
118
119
119
120
120
120
120
120
87
114
101
105
83
116
90
90
110
90
90
90
90
90
88
88
83
80
75
76
64
81
58
122
52
55
54
69
69
69
69
69
69
53
53
55
55
53
55
55
123
53
53
52
52
58
80
80
75
80
88
90
90
108
90
90
90
90
91
90
90
90
90
110
110
110
90
91
113
113
113
84
88
88
113
107
124
113
107
111
105
105
105
105
105
101
114
114
114
118
120
119
119
120
120
120
120
120
120
120
120
87
95
101
105
124
91
90
90
90
90
90
90
90
88
88
84
82
80
64
64
66
58
57
68
77
54
69
69
69
69
69
69
53
53
53
53
53
53
53
123
54
54
54
54
58
80
80
75
64
80
88
90
90
90
90
89
90
90
90
90
90
90
90
110
90
91
107
125
105
126
126
101
79
126
126
126
126
127
126
101
101
95
114
114
114
114
114
118
120
120
120
120
120
120
128
128
128
128
120
120
129
114
95
101
105
107
88
90
90
90
90
90
90
90
91
88
84
82
75
64
64
66
57
68
51
54
70
69
69
69
69
69
53
53
53
53
53
53
53
53
53
53
123
53
60
80
80
64
64
75
83
91
90
110
90
90
90
90
90
90
110
109
109
90
116
113
82
79
101
121
121
114
114
130
130
114
114
114
114
114
114
114
131
118
118
118
129
120
120
120
120
128
128
128
128
128
128
128
128
120
120
118
114
95
101
105
111
88
90
90
90
90
90
90
90
91
88
82
80
74
64
64
67
51
52
55
54
69
69
69
69
69
55
55
55
55
53
123
53
53
53
123
53
52
60
75
80
64
75
80
88
90
90
90
110
108
109
109
108
108
109
109
109
90
88
107
80
79
101
121
114
114
114
114
114
131
131
132
131
118
118
129
118
118
120
120
128
128
128
128
128
128
128
128
128
128
128
128
128
128
120
120
87
114
121
101
105
107
90
90
90
90
90
90
90
88
88
102
82
79
64
75
66
55
77
55
77
54
69
69
69
69
54
54
54
54
55
54
54
54
54
54
54
123
59
76
80
75
79
83
89
90
90
109
109
109
109
109
109
109
109
109
90
88
84
82
105
79
101
101
95
95
114
132
132
118
118
118
118
120
120
120
120
128
128
128
128
128
128
128
128
128
128
128
133
133
133
128
128
128
120
120
120
118
114
101
79
80
116
90
90
90
90
90
90
90
88
83
102
80
75
75
66
52
55
55
51
55
69
69
69
69
54
54
54
54
54
54
54
54
54
54
54
53
57
76
80
82
80
88
90
90
108
109
109
109
109
109
109
109
109
90
88
88
88
88
107
111
82
105
101
64
95
132
87
118
118
120
120
128
128
128
128
128
128
128
128
128
128
128
128
128
128
133
134
134
134
134
128
128
128
120
120
118
114
95
101
105
91
90
90
90
90
90
90
90
90
88
102
80
80
64
60
52
55
55
52
55
69
69
69
69
54
54
54
54
54
54
54
54
54
54
54
53
57
99
80
88
88
90
90
90
108
109
109
109
109
109
109
108
90
88
88
88
88
91
91
91
90
88
82
105
101
95
114
132
118
118
120
128
128
128
128
128
128
128
128
128
128
133
133
128
128
134
134
134
134
134
134
128
128
120
120
129
132
114
74
105
88
90
90
90
110
108
109
90
90
88
88
80
80
99
81
51
51
51
55
55
70
69
69
69
54
54
54
54
54
54
54
54
54
54
54
54
57
64
80
88
88
90
109
108
109
109
109
109
109
109
109
90
89
91
91
91
91
91
90
90
90
90
90
88
107
105
101
121
114
131
129
135
128
128
128
128
128
128
128
128
128
128
133
133
133
134
134
134
134
134
134
134
136
120
120
129
118
132
95
105
88
90
90
90
90
108
108
90
90
89
88
80
93
75
66
56
51
55
54
55
54
70
54
54
54
54
54
54
54
54
54
54
54
54
54
54
56
64
80
88
90
110
110
108
109
109
109
109
109
109
108
90
90
91
91
91
91
91
116
90
90
90
90
90
90
91
88
111
105
121
118
129
128
128
128
128
128
128
120
128
120
128
128
133
133
133
133
134
134
134
134
128
128
120
120
129
118
132
74
82
91
90
90
90
90
108
109
110
90
90
88
76
76
93
64
67
52
54
70
54
54
54
54
54
54
54
54
54
54
54
54
54
54
54
54
53
56
63
79
80
91
108
109
109
109
109
109
109
109
109
90
88
88
107
82
82
105
105
82
111
107
88
91
90
110
110
90
91
113
105
114
118
135
128
128
128
120
120
118
118
132
120
120
120
120
120
120
120
120
120
120
120
120
120
120
129
118
114
79
107
91
90
90
110
110
109
109
90
90
90
88
64
64
93
99
67
53
54
55
54
54
54
54
54
54
54
54
54
54
54
54
54
54
54
53
53
56
64
75
80
88
90
109
109
109
109
109
109
109
109
91
82
79
126
121
130
114
114
114
95
121
101
126
105
107
116
90
90
116
107
121
131
135
129
128
128
120
118
114
114
101
114
95
101
101
95
114
95
95
114
87
66
66
87
118
129
132
121
105
107
116
110
109
109
109
109
109
90
90
90
88
80
64
93
64
68
55
54
54
70
70
54
69
69
54
54
54
54
54
54
54
54
54
53
72
56
104
64
75
82
88
90
110
110
109
110
90
90
109
110
125
74
121
132
132
132
121
74
74
101
101
79
105
105
105
105
125
124
91
107
121
131
129
135
118
118
118
137
114
101
105
79
82
84
88
113
80
80
105
79
75
101
64
95
95
132
132
121
82
113
90
108
110
109
109
109
108
108
108
90
88
80
76
75
64
68
52
55
54
69
54
54
69
70
54
54
54
54
54
54
54
54
54
54
50
66
60
64
80
88
88
90
90
90
90
90
90
110
109
91
121
138
132
131
132
126
125
105
80
84
113
113
111
111
107
107
105
126
125
105
130
129
129
135
131
118
137
114
139
105
111
113
91
90
90
90
90
90
88
88
113
83
80
79
75
101
95
95
80
91
90
109
109
109
109
109
109
109
109
89
85
83
93
100
99
68
52
77
54
54
54
70
70
70
54
54
54
54
54
54
54
54
54
54
52
75
76
79
80
88
88
89
90
90
90
90
109
109
140
125
132
131
131
130
126
124
91
107
113
90
90
90
90
113
113
111
82
125
141
121
131
129
135
135
129
128
118
114
101
125
107
113
91
116
90
90
90
90
90
88
88
88
113
111
82
82
79
74
79
90
110
108
109
109
109
109
109
109
90
88
84
83
80
78
96
68
55
52
54
54
70
70
70
69
54
54
54
54
54
54
54
54
54
54
52
74
78
64
75
88
90
89
88
90
90
108
109
109
113
130
142
131
143
130
139
126
125
82
107
90
90
90
90
75
105
107
125
125
126
130
142
135
128
128
128
128
128
114
139
126
101
126
105
105
105
105
82
124
88
88
88
88
88
83
84
113
111
75
80
90
108
109
109
109
109
109
110
90
91
88
84
84
80
60
66
122
77
51
55
54
70
70
69
69
54
54
54
54
54
54
54
54
54
54
52
65
66
92
75
80
91
90
89
90
90
109
109
110
126
131
142
142
142
131
131
131
114
139
105
82
113
116
80
64
79
124
144
127
126
143
145
128
136
136
146
134
128
118
114
114
121
126
105
105
126
101
121
74
74
101
75
80
80
111
83
113
113
105
88
90
109
109
109
109
108
108
90
90
88
88
84
83
80
81
81
57
68
51
55
54
70
70
69
69
54
54
54
54
54
54
54
54
54
53
53
66
76
75
82
83
85
88
90
90
110
109
109
113
132
142
142
142
145
145
142
142
131
137
114
139
101
101
101
101
126
105
105
139
147
143
135
136
146
146
148
146
128
129
114
139
127
125
107
107
111
105
101
74
114
87
87
132
95
101
79
82
88
88
90
109
109
109
109
109
108
90
90
90
89
88
84
102
93
66
81
66
60
52
54
54
70
70
69
69
54
54
54
54
54
54
54
53
52
52
53
57
76
79
80
82
102
83
88
89
90
109
110
126
142
142
145
135
135
128
135
131
137
137
131
137
114
130
139
139
139
139
139
130
130
131
128
146
146
146
148
146
128
118
114
101
105
105
111
111
113
113
80
105
74
95
87
120
120
87
95
75
83
90
110
90
90
109
109
109
109
90
90
90
90
88
88
102
80
64
65
96
57
55
70
54
70
69
69
69
54
54
54
54
54
54
54
53
50
57
67
60
75
80
80
80
83
85
88
91
90
140
88
114
142
135
128
136
136
146
128
135
131
143
130
130
130
130
130
147
147
130
130
143
131
145
128
146
146
146
148
146
128
137
147
139
105
111
105
75
88
90
90
116
80
74
95
132
120
120
87
95
105
116
90
90
110
109
109
109
109
90
90
90
90
90
88
83
93
96
64
86
52
54
70
54
69
69
69
69
54
54
54
54
54
54
54
54
53
52
56
78
75
79
80
80
80
82
88
90
109
110
105
142
135
136
136
136
146
148
146
128
135
131
131
137
137
137
143
143
143
137
131
131
145
135
146
146
149
149
148
128
128
137
114
130
126
105
105
95
113
90
90
90
88
82
75
74
132
129
129
87
101
91
90
90
108
109
109
109
109
110
90
90
90
90
88
83
75
66
96
67
55
55
54
69
69
69
69
70
54
54
54
54
54
54
54
54
55
53
52
78
64
75
93
80
80
85
88
90
109
90
74
136
136
136
136
136
146
148
148
146
128
128
135
135
135
135
135
145
135
145
145
145
135
150
146
148
148
148
146
128
128
118
137
114
139
101
101
101
105
116
90
90
80
75
88
105
121
142
129
129
121
88
90
90
90
109
109
109
109
109
108
90
90
88
88
88
75
66
81
57
51
54
69
69
69
69
70
69
54
54
54
54
54
54
54
54
54
54
56
78
75
80
80
102
83
88
90
90
109
88
142
136
146
148
148
148
148
148
149
149
146
128
128
128
128
128
135
135
135
135
135
135
136
149
151
149
148
148
136
128
128
128
131
114
130
139
139
139
101
101
79
105
79
105
107
107
126
132
129
129
121
91
90
90
108
109
109
109
109
109
109
90
90
90
88
84
75
96
60
67
67
54
69
69
70
70
69
70
55
55
54
54
54
54
54
54
54
54
60
64
89
88
80
80
83
88
90
90
90
125
136
136
146
148
148
151
151
149
149
149
148
150
128
128
128
135
135
135
135
135
135
128
152
152
151
151
149
148
146
128
128
128
128
131
114
130
139
139
130
114
114
114
114
114
114
114
121
114
142
129
121
91
90
90
108
109
109
109
109
109
109
90
90
90
90
88
85
100
66
66
81
55
70
70
70
70
70
54
52
52
53
53
54
54
54
54
54
53
57
97
102
80
88
84
80
88
91
90
91
101
136
153
148
148
151
152
151
151
149
148
148
150
128
128
128
128
135
135
135
135
128
149
151
151
151
149
149
148
146
136
136
128
128
128
118
137
114
130
130
114
114
118
129
118
129
129
129
129
129
129
114
113
90
90
90
109
109
109
109
109
109
109
90
90
90
88
85
80
65
100
86
55
54
54
70
70
54
54
64
61
52
52
55
54
54
54
54
53
68
60
66
76
88
85
84
88
91
91
91
132
136
153
153
151
151
151
151
149
148
148
150
128
128
128
128
128
128
135
135
128
146
151
151
151
151
149
149
148
146
136
136
128
128
128
128
128
118
131
132
114
114
114
114
131
129
120
128
128
128
128
131
107
90
90
90
109
109
109
109
109
109
90
90
90
88
88
80
80
100
103
81
54
54
54
70
54
54
54
93
66
50
52
55
54
54
54
55
53
51
72
58
66
80
80
88
88
88
90
84
154
136
134
151
152
151
151
149
148
146
128
128
128
128
128
128
128
128
135
136
152
155
152
151
149
149
149
148
148
146
136
136
128
128
128
136
136
128
128
120
120
120
128
129
128
128
128
136
136
128
128
120
105
90
110
109
109
109
109
109
109
109
108
90
90
88
88
83
102
103
156
77
54
54
54
54
54
54
54
93
61
51
52
55
55
54
54
54
55
53
52
52
52
60
64
83
88
88
88
105
129
136
134
151
151
151
148
146
150
128
128
128
128
135
135
135
128
128
146
155
157
158
159
151
149
149
149
149
148
146
136
128
128
128
128
136
134
134
136
128
128
128
128
128
128
136
136
136
136
136
136
120
114
90
140
109
109
109
109
109
109
109
110
90
90
160
88
103
80
161
51
55
54
54
54
54
54
54
54
93
60
50
52
55
55
54
54
54
54
54
54
54
53
52
60
75
83
91
162
101
73
136
136
151
153
148
136
128
128
128
128
135
131
131
131
145
146
163
155
164
165
157
164
152
151
149
149
149
149
148
146
128
128
128
128
134
134
148
148
148
146
146
136
148
148
134
134
134
136
136
136
120
62
88
140
109
109
109
109
109
109
90
90
88
85
80
76
66
166
55
55
54
54
54
54
54
54
54
54
93
58
51
52
53
55
54
54
54
54
54
54
54
52
72
60
75
82
84
79
132
136
129
136
153
134
136
128
128
128
135
118
131
131
167
145
135
151
155
163
155
155
155
163
151
151
149
149
149
149
148
146
128
128
128
136
134
134
134
133
148
148
148
148
148
148
148
148
148
134
136
136
128
62
91
90
110
109
109
108
90
90
88
80
100
64
67
68
77
55
54
54
54
54
54
54
54
54
54
54
93
57
51
52
53
55
54
54
54
54
54
54
54
52
57
66
75
80
82
101
120
136
142
136
136
136
128
128
135
129
131
137
137
131
142
145
135
146
151
151
151
152
151
151
149
149
149
149
148
148
148
146
150
128
128
136
134
134
128
133
148
148
148
148
148
148
148
148
134
134
136
136
136
132
91
90
90
109
109
110
90
88
83
64
86
67
68
55
70
70
54
54
54
54
54
54
54
54
54
54
100
56
51
52
55
54
54
54
54
54
54
54
54
52
56
64
79
79
79
74
120
129
131
128
136
128
135
129
118
114
114
114
137
131
142
145
145
135
131
135
146
151
149
146
146
146
148
148
148
148
148
148
146
146
128
136
134
134
128
133
133
148
148
148
148
148
148
148
134
134
134
136
136
114
116
90
90
90
90
90
88
88
80
86
57
168
68
55
70
69
54
54
54
54
54
54
54
54
54
70
100
50
50
53
55
54
54
54
54
54
54
54
54
52
57
64
80
80
79
132
129
142
130
129
136
135
142
131
114
139
139
130
114
131
131
131
142
135
130
147
135
136
128
128
128
128
128
136
136
136
136
136
146
148
128
128
136
134
128
128
128
148
148
148
148
148
148
148
134
134
134
136
73
101
116
91
89
90
90
83
64
75
75
98
166
51
68
55
70
69
54
54
54
54
54
54
54
54
69
69
76
50
50
53
55
54
54
54
54
54
54
54
53
52
59
64
75
80
79
154
129
132
130
129
128
131
130
130
101
126
126
101
121
130
132
131
131
129
142
130
130
129
128
128
128
128
128
128
128
128
129
128
134
134
128
128
134
128
128
128
128
133
148
148
148
148
148
148
134
134
136
136
120
105
90
88
88
88
88
76
60
66
99
169
168
55
168
168
55
70
54
54
54
54
54
54
54
69
69
70
99
51
50
53
55
54
54
54
54
54
54
54
53
52
60
64
64
79
75
132
129
130
121
129
120
130
101
126
105
105
105
126
126
101
121
114
114
114
114
126
101
114
129
120
120
120
120
120
118
101
127
130
128
128
128
128
134
133
128
128
128
133
133
133
148
148
148
148
134
134
136
73
120
84
90
88
88
88
88
96
67
68
99
81
52
55
51
68
55
70
54
54
54
54
54
70
69
69
70
54
65
51
50
53
55
54
54
54
54
54
54
54
53
57
78
78
64
75
75
132
132
121
101
73
129
130
101
126
105
82
82
82
105
79
101
74
74
101
75
105
125
79
95
129
129
120
129
118
87
114
170
130
137
120
128
128
128
128
128
128
128
128
128
133
134
148
134
134
134
136
136
120
114
88
90
89
88
83
88
64
67
51
161
161
55
55
55
57
55
55
54
70
54
70
69
69
69
70
54
54
86
51
50
53
55
55
54
54
54
54
54
54
52
61
78
64
74
79
75
154
114
101
74
73
129
74
126
101
80
111
84
107
80
79
79
75
79
79
82
82
107
113
82
121
132
132
87
87
87
87
114
114
118
120
128
128
128
128
128
128
128
128
128
128
128
128
134
134
134
136
73
120
101
116
90
90
88
83
88
64
56
55
81
99
51
55
55
68
51
55
54
69
69
69
69
69
70
54
54
54
61
51
51
53
53
55
54
54
54
54
54
54
52
66
65
75
80
80
75
132
95
126
74
129
114
79
105
82
88
91
88
82
105
82
80
80
80
80
84
107
84
116
116
107
79
101
101
101
101
101
101
95
114
118
120
120
128
128
128
128
120
128
128
128
128
128
136
134
136
73
120
120
105
90
90
90
88
88
103
99
68
55
67
99
68
55
55
168
68
55
54
69
69
69
54
54
54
54
54
54
81
52
51
53
53
54
54
54
54
54
54
54
52
66
79
80
80
80
93
64
74
79
126
154
121
105
107
113
91
91
88
107
107
84
107
82
113
88
113
113
88
116
116
91
113
88
113
84
111
111
111
75
64
132
132
120
120
120
120
129
129
120
128
128
128
128
128
136
136
120
120
132
82
88
102
93
88
102
106
64
51
55
168
99
81
55
55
51
67
55
69
69
69
54
54
54
54
54
54
54
67
51
51
53
53
55
54
54
54
54
54
54
53
58
76
80
80
82
80
74
74
79
79
132
114
101
107
113
91
91
91
113
107
113
113
113
91
88
88
91
91
88
113
88
116
90
116
88
88
88
88
84
80
101
121
132
132
129
129
131
131
129
120
128
128
128
128
136
128
120
120
95
113
83
100
64
99
100
99
67
55
55
77
171
161
55
54
77
68
55
69
69
54
54
54
54
54
54
54
54
57
52
52
53
55
54
54
54
54
54
54
54
54
57
66
76
80
80
80
75
74
79
79
95
132
121
125
162
162
107
107
82
107
172
172
91
91
113
124
111
105
101
101
105
124
116
90
90
91
90
91
88
88
80
75
74
74
114
132
132
114
132
142
120
128
136
134
128
120
120
120
101
88
80
64
65
86
99
96
168
55
52
55
86
99
52
55
55
168
55
70
54
54
54
54
54
54
54
54
54
57
52
52
53
55
55
54
54
54
54
54
54
54
50
66
64
64
75
80
79
75
79
79
74
114
121
79
125
126
101
126
126
121
126
125
107
107
124
124
173
127
139
114
114
139
105
116
116
90
89
88
88
88
84
80
79
79
75
74
121
95
130
114
129
128
128
136
120
129
120
120
101
84
76
86
66
81
81
81
86
122
68
55
81
99
122
55
55
168
77
54
54
54
54
54
54
54
54
54
54
56
51
52
53
55
55
54
54
54
54
54
54
54
55
57
76
80
64
75
82
80
79
79
126
121
95
79
105
101
114
130
130
132
131
114
130
147
139
127
127
127
127
147
114
114
170
174
91
116
91
88
88
88
88
84
80
82
82
105
79
79
101
74
132
120
120
128
120
129
120
120
101
80
96
61
60
81
57
55
55
51
68
52
122
175
81
55
54
51
168
55
54
54
54
54
54
55
55
55
54
68
51
52
53
55
55
54
54
54
54
54
54
54
54
52
81
80
102
80
82
82
79
79
101
74
74
74
105
126
114
132
142
142
129
120
129
129
118
137
137
137
176
147
147
147
177
105
124
88
88
113
113
113
113
84
111
111
84
111
82
82
79
79
95
120
120
120
129
129
129
87
105
80
86
81
81
60
51
54
69
69
54
55
51
99
171
55
55
55
57
55
54
54
54
54
54
55
55
55
54
50
50
53
53
53
54
54
54
54
54
54
54
54
54
55
50
66
75
82
82
82
80
105
75
101
74
79
105
105
101
132
142
142
129
128
136
128
128
128
178
118
179
179
137
137
176
139
174
124
113
124
113
107
111
111
111
107
113
88
88
84
82
80
75
62
120
120
132
132
62
95
80
79
66
60
67
68
55
69
69
69
69
55
54
96
99
51
55
55
67
51
55
54
54
55
55
55
55
55
54
50
50
53
53
53
54
54
54
54
54
54
54
54
54
54
53
57
58
64
80
102
80
79
75
79
79
105
82
82
126
95
154
142
129
136
136
136
128
128
128
128
128
178
178
119
180
180
179
176
101
127
174
174
111
111
111
107
88
88
88
91
88
84
79
132
120
87
132
132
87
64
82
75
78
60
68
168
55
70
69
69
69
55
69
98
99
67
55
55
68
68
55
55
54
54
55
55
55
55
54
50
50
53
53
53
54
54
54
54
54
54
54
54
54
54
55
51
57
58
64
80
82
93
80
80
93
80
82
80
79
74
132
129
129
129
120
120
129
129
129
120
120
128
128
128
128
128
178
119
180
179
114
139
127
173
107
113
88
88
88
91
88
88
105
63
62
95
95
114
95
101
83
75
64
67
51
52
54
54
69
69
69
55
54
67
99
81
55
55
168
67
55
55
54
54
54
55
55
55
54
51
50
53
53
53
54
54
54
54
54
54
54
54
54
54
55
53
51
56
58
64
93
82
80
80
83
88
88
111
105
126
121
154
142
129
129
154
132
114
114
114
132
120
120
120
120
128
133
133
128
128
120
119
179
114
95
101
105
111
107
88
88
113
79
95
132
74
64
95
95
80
83
100
64
57
52
55
54
54
54
69
69
55
55
77
99
161
55
55
55
67
51
55
54
54
55
55
54
54
70
52
50
53
53
53
53
54
54
54
54
54
54
54
54
54
54
53
52
50
56
60
75
102
80
82
85
88
88
82
82
79
74
114
132
142
132
114
121
74
101
101
101
95
114
114
132
118
120
120
128
133
128
128
128
120
129
114
139
101
105
107
107
82
79
74
74
101
74
64
75
83
83
75
97
68
55
55
54
54
54
69
69
70
55
69
181
181
168
55
55
67
68
55
55
54
54
54
70
70
54
52
50
53
53
55
55
54
54
54
54
54
54
54
54
54
55
53
52
52
50
58
75
84
102
84
85
88
88
111
82
105
101
74
114
114
121
74
101
79
79
79
105
79
101
79
101
101
95
114
118
120
128
128
128
120
120
118
114
95
101
79
105
79
101
101
75
75
64
74
80
84
106
99
66
68
52
55
54
54
54
69
69
69
77
69
98
99
67
55
55
68
67
52
55
54
69
69
54
54
54
52
50
53
53
55
54
54
54
54
54
54
54
54
54
54
55
52
52
52
94
59
65
80
102
85
88
88
85
83
82
82
79
101
74
121
74
101
79
105
105
105
80
80
82
82
105
105
101
101
114
131
129
120
128
120
120
129
87
95
101
74
101
75
101
75
79
79
74
79
83
83
80
64
81
57
55
55
54
54
54
70
69
69
55
55
67
100
81
55
55
51
67
51
54
69
69
54
54
55
54
52
50
53
53
54
54
54
54
54
54
54
54
54
54
54
55
53
52
52
94
57
73
74
84
88
88
88
84
88
84
80
79
79
74
74
74
74
79
105
80
80
82
82
84
83
82
82
105
79
74
114
87
120
120
120
120
129
132
101
101
64
101
101
79
105
105
105
79
102
83
80
106
64
67
168
55
55
54
54
54
54
69
69
55
55
51
100
86
51
55
55
67
51
70
54
54
55
55
55
55
52
50
53
53
53
54
54
54
54
54
54
54
54
54
54
55
53
52
59
62
153
153
129
82
88
88
88
84
85
82
79
105
79
74
74
74
75
105
80
80
102
84
82
82
82
107
84
107
82
126
121
132
129
120
120
66
114
74
79
101
74
101
79
105
105
80
82
83
88
88
102
93
67
51
55
55
55
54
54
54
54
69
69
55
51
55
99
96
168
55
55
68
53
54
55
54
55
55
55
55
50
52
53
53
123
54
54
54
54
54
54
53
55
54
54
54
53
104
132
136
182
153
129
105
88
88
84
84
82
80
80
80
79
75
101
79
105
80
80
82
84
84
82
82
84
88
84
111
82
105
126
121
132
132
132
95
74
79
105
75
101
75
79
80
79
80
88
88
88
85
106
96
168
55
55
55
55
54
54
54
54
70
69
70
51
55
161
99
68
55
55
168
51
55
55
55
55
55
55
55
50
52
53
54
54
54
54
54
54
53
54
50
52
53
52
53
53
73
132
153
182
153
136
126
84
88
88
88
84
82
83
82
80
105
105
105
80
80
82
82
84
84
102
83
88
88
88
82
105
79
79
101
74
74
74
101
79
80
80
79
75
79
105
80
80
83
88
85
83
80
96
68
55
55
55
55
55
54
54
54
54
54
69
69
51
55
169
100
67
55
55
51
68
55
55
55
55
55
55
55
53
54
54
54
54
54
54
54
54
52
53
52
53
50
50
52
52
74
130
151
182
153
136
74
84
88
88
88
84
85
84
83
80
80
82
82
80
80
82
82
84
84
83
84
84
88
84
111
80
105
79
79
79
79
79
105
80
82
111
80
79
105
80
82
84
88
102
99
96
81
51
55
55
55
55
55
55
55
55
55
54
54
69
69
55
55
68
100
81
52
55
51
68
52
55
55
55
55
55
55
53
54
54
54
54
54
54
54
54
53
53
53
52
56
68
52
56
79
132
151
182
153
136
130
82
91
88
88
85
88
88
84
82
80
102
84
82
82
82
102
82
84
83
83
83
84
84
84
111
80
80
80
80
82
80
83
82
102
83
82
80
82
82
102
88
85
93
86
81
57
55
55
55
55
55
55
55
55
55
54
54
54
183
69
55
51
51
99
96
51
55
55
68
51
55
55
55
55
55
55
50
52
55
54
54
55
54
54
55
52
52
53
50
57
50
52
59
125
129
151
151
153
136
154
126
162
88
88
88
88
88
88
88
80
82
84
84
84
84
84
102
88
83
83
88
113
84
111
84
84
82
84
84
84
85
85
83
88
88
83
83
85
84
102
80
97
66
81
67
51
55
55
55
55
55
55
55
54
54
54
54
54
54
69
54
51
55
171
99
51
55
55
68
68
52
55
55
55
55
55
56
52
52
54
54
53
52
52
53
52
50
52
50
57
50
52
73
82
136
151
153
153
184
136
132
105
88
88
88
88
88
84
83
84
84
102
84
84
88
88
85
88
88
88
88
88
88
111
84
113
88
88
88
88
88
88
88
88
88
83
84
85
102
75
86
67
168
51
55
55
55
55
55
55
55
54
54
54
54
55
54
55
54
69
69
51
55
185
100
67
55
55
168
67
51
55
55
55
55
55
57
50
52
52
53
52
50
50
52
52
52
53
50
57
52
52
62
125
136
153
153
153
186
136
129
74
113
91
88
88
88
88
88
88
85
88
88
91
91
88
88
88
88
91
88
88
88
88
88
88
88
88
88
88
88
88
88
88
88
88
85
85
75
81
56
168
51
55
55
55
55
55
55
54
54
54
54
54
55
55
55
55
55
69
69
77
55
67
100
81
55
55
51
67
168
77
55
55
55
55
56
56
56
50
52
68
56
50
52
52
53
52
57
57
52
94
64
82
136
153
153
153
184
136
73
132
82
91
91
88
88
88
90
88
88
91
90
90
90
91
88
91
90
90
90
91
88
88
88
88
91
88
88
88
88
88
88
88
88
88
85
80
86
68
51
55
55
55
55
55
55
55
54
54
70
54
55
55
55
55
55
55
55
54
69
55
77
68
187
96
52
52
51
67
122
52
55
55
55
55
56
57
57
56
57
68
56
56
52
52
57
51
68
56
50
50
63
82
136
59
153
186
184
136
136
154
74
113
91
90
89
88
89
90
88
90
90
90
90
90
91
89
90
90
90
90
90
89
88
90
89
88
88
88
88
88
88
90
88
88
102
66
57
51
188
55
55
55
55
55
55
54
54
55
55
55
55
55
55
55
55
55
55
55
69
55
51
168
99
100
51
52
52
67
67
51
55
55
55
55
56
57
57
57
57
56
50
50
56
57
72
52
51
68
51
50
62
82
73
184
184
184
136
136
136
129
132
105
91
89
90
89
90
90
90
90
90
90
90
90
90
90
90
90
90
90
90
90
90
90
90
91
88
88
89
88
91
90
88
88
85
97
168
51
53
55
55
55
55
55
55
55
55
55
55
55
55
55
55
55
55
55
55
55
70
189
51
55
96
100
67
52
55
68
67
68
52
55
55
55
56
57
60
58
57
57
50
50
57
50
50
52
52
50
50
50
66
82
142
136
136
136
136
136
136
129
154
121
105
88
90
90
90
90
90
90
108
90
90
90
90
90
90
90
90
110
90
90
90
90
90
90
88
88
91
90
90
90
88
85
80
96
67
52
55
55
55
55
55
55
55
55
55
55
55
55
55
55
55
55
55
55
55
55
54
70
51
55
86
100
81
53
52
168
67
67
55
55
54
55
67
60
60
60
58
57
57
50
57
68
50
52
51
56
50
50
73
82
132
136
136
136
136
136
129
129
142
154
121
105
91
90
110
110
110
90
90
90
90
90
90
90
90
90
110
108
108
110
90
90
90
91
91
88
90
90
90
91
88
103
80
64
81
168
55
55
55
55
55
55
55
55
55
55
55
55
55
55
55
55
55
55
55
55
55
70
190
55
67
100
96
52
52
51
67
67
55
55
55
55
60
57
57
60
60
60
60
57
57
57
68
50
52
68
68
72
60
105
74
136
136
136
191
129
129
142
142
154
132
74
82
91
110
110
90
90
90
90
90
90
90
90
90
90
90
108
110
90
90
90
90
89
89
89
90
89
85
83
88
102
80
99
86
67
55
55
55
55
55
55
55
55
55
55
55
55
55
55
55
55
55
55
55
55
55
70
55
77
168
187
99
168
52
55
57
68
55
55
55
55
67
57
57
60
60
61
60
60
57
57
57
50
52
72
72
50
59
75
79
129
73
129
129
129
142
142
142
154
132
132
121
79
113
90
110
110
90
110
90
90
90
90
110
109
108
110
90
90
90
90
90
90
90
90
89
83
74
75
88
88
80
75
86
67
51
55
55
51
168
68
68
51
51
51
52
55
55
55
55
55
55
55
55
55
55
189
55
51
55
99
192
67
52
77
68
57
55
55
55
55
57
57
57
60
61
66
66
60
57
57
57
50
51
68
50
56
57
64
79
132
129
129
129
142
154
142
154
154
132
132
130
121
101
82
90
110
110
110
90
90
110
90
110
109
108
90
90
90
90
90
90
90
90
89
82
64
65
75
83
88
80
75
86
67
67
67
67
81
86
86
86
86
66
81
60
57
168
51
52
55
55
55
55
55
55
189
55
51
55
96
100
81
52
52
51
67
51
55
55
77
57
57
57
57
60
61
61
60
57
57
57
68
51
72
72
56
57
63
79
74
129
129
154
142
154
132
132
154
132
132
132
132
114
74
79
162
91
91
90
90
110
90
108
108
90
90
90
90
90
90
90
90
91
84
75
65
64
64
80
90
83
75
86
60
67
67
67
67
81
78
96
78
66
60
60
60
60
60
67
67
51
55
55
55
55
55
55
51
55
81
100
161
51
52
52
67
68
52
55
55
67
57
57
57
67
60
61
60
57
57
67
57
72
72
72
72
56
62
79
74
132
154
132
132
132
132
132
132
132
132
132
132
132
132
95
74
101
79
82
88
90
90
90
110
90
90
90
90
90
88
88
82
79
74
63
64
93
64
100
88
88
75
96
60
67
67
67
67
58
81
86
86
81
60
60
60
81
81
81
60
67
51
55
55
55
55
55
190
55
68
100
64
68
52
52
67
67
51
55
55
57
57
57
57
57
58
60
67
57
57
67
57
68
50
50
72
56
61
75
101
121
132
132
132
132
132
132
132
132
132
132
132
132
132
132
114
95
74
74
75
105
105
79
105
80
88
88
84
82
75
74
63
132
62
62
80
80
64
75
103
90
80
96
81
169
67
67
169
169
60
66
66
81
58
67
60
60
81
60
60
60
67
166
68
68
168
52
190
51
55
100
99
67
52
52
68
67
168
52
77
57
57
57
57
57
57
60
67
57
57
57
67
56
51
51
56
57
60
74
101
74
95
114
114
132
132
132
132
132
132
132
132
132
132
132
132
114
95
95
95
95
114
132
132
63
64
74
74
64
95
62
62
62
62
63
90
100
64
75
106
90
80
64
66
81
60
67
67
169
60
81
81
60
67
67
67
60
60
60
60
81
60
67
57
67
67
68
57
68
54
99
100
81
51
51
51
67
68
51
77
