P2
64 208
255
1
1
1
1
1
1
1
1
1
1
1
1
1
1
1
1
2
2
2
2
2
0
0
0
0
0
0
2
2
2
2
2
0
0
0
0
0
0
0
0
0
0
0
0
0
0
0
0
0
0
0
0
0
0
0
0
0
0
0
0
0
0
0
0
1
1
3
3
3
3
3
3
3
3
3
3
3
3
1
1
2
0
0
0
2
0
0
0
0
0
0
2
0
0
0
2
0
0
0
4
4
4
4
0
0
0
0
0
0
0
0
0
0
0
0
0
0
0
0
0
0
0
0
0
0
0
0
0
1
3
1
3
3
3
3
3
3
3
3
3
3
1
3
1
2
0
2
2
0
0
0
0
0
0
0
0
2
2
0
2
0
0
4
0
0
0
0
2
2
2
2
2
0
0
0
0
0
0
0
0
0
2
2
2
2
2
0
0
0
0
0
0
1
3
3
1
3
3
3
3
3
3
3
3
1
3
3
1
2
0
2
0
0
0
0
0
0
0
0
0
0
2
0
2
0
4
0
0
0
2
2
0
0
4
0
0
4
0
0
0
0
0
0
0
2
2
2
2
2
2
2
0
0
0
0
0
1
3
3
3
1
3
3
3
3
3
3
1
3
3
3
1
2
2
0
0
0
0
0
0
0
0
0
0
0
0
2
2
0
4
0
0
2
0
0
0
0
0
4
0
0
4
0
0
0
0
0
2
2
2
2
2
2
2
2
2
0
0
0
0
1
3
3
3
3
1
3
3
3
3
1
3
3
3
3
1
0
0
0
0
0
0
0
0
0
0
0
0
0
0
0
0
0
4
0
2
0
0
0
0
0
0
0
2
0
4
0
0
0
0
0
2
2
2
0
0
0
2
2
2
0
0
0
0
1
3
3
3
3
3
1
3
3
1
3
3
3
3
3
1
0
0
0
0
0
0
0
0
0
0
0
0
0
0
0
0
0
4
0
2
0
0
0
5
5
0
0
0
2
4
0
0
0
0
0
2
2
2
0
0
0
2
2
2
0
0
0
0
1
3
3
3
3
3
3
1
1
3
3
3
3
3
3
1
0
0
0
0
0
0
0
0
0
0
0
0
0
0
0
0
0
0
2
0
4
4
5
5
5
5
4
4
0
2
0
0
0
0
0
0
0
0
0
0
2
2
2
0
0
0
0
0
1
3
3
3
3
3
3
1
1
3
3
3
3
3
3
1
0
0
0
0
0
0
0
0
0
0
0
0
0
0
0
0
0
0
2
2
0
0
5
5
5
5
0
0
2
2
0
0
0
0
0
0
0
0
0
2
2
2
2
0
0
0
0
0
1
3
3
3
3
3
1
3
3
1
3
3
3
3
3
1
0
0
0
0
0
0
0
0
0
0
0
0
0
0
0
0
0
0
2
4
2
2
2
5
5
2
2
2
4
0
2
0
0
0
0
0
0
0
2
2
2
2
0
0
0
0
0
0
1
3
3
3
3
1
3
3
3
3
1
3
3
3
3
1
0
0
0
0
0
0
0
0
0
0
0
0
0
0
0
0
0
0
2
0
4
0
0
2
2
0
0
0
4
0
2
0
0
0
0
0
0
0
2
2
2
0
0
0
0
0
0
0
1
3
3
3
1
3
3
3
3
3
3
1
3
3
3
1
2
2
0
0
0
0
0
0
0
0
0
0
0
0
2
2
0
0
2
0
0
2
0
0
0
0
0
4
0
0
2
0
0
0
0
0
0
0
2
2
2
0
0
0
0
0
0
0
1
3
3
1
3
3
3
3
3
3
3
3
1
3
3
1
2
0
2
0
0
0
0
0
0
0
0
0
0
2
0
2
0
0
0
2
0
0
2
0
0
4
4
0
0
0
2
0
0
0
0
0
0
0
0
0
0
0
0
0
0
0
0
0
1
3
1
3
3
3
3
3
3
3
3
3
3
1
3
1
2
0
2
2
0
0
0
0
0
0
0
0
2
2
0
2
0
0
0
0
4
4
4
2
2
0
0
0
0
2
0
0
0
0
0
0
0
0
2
2
2
0
0
0
0
0
0
0
1
1
3
3
3
3
3
3
3
3
3
3
3
3
1
1
2
0
0
0
2
0
0
0
0
0
0
2
0
0
0
2
0
0
0
0
0
0
0
0
0
2
2
2
2
0
0
0
0
0
0
0
0
0
2
2
2
0
0
0
0
0
0
0
1
1
1
1
1
1
1
1
1
1
1
1
1
1
1
1
2
2
2
2
2
0
0
0
0
0
0
2
2
2
2
2
0
0
0
0
0
0
0
0
0
0
0
0
0
0
0
0
0
0
0
0
0
0
0
0
0
0
0
0
0
0
0
0
1
1
1
1
1
1
6
6
6
6
1
1
1
1
1
1
1
1
1
1
1
1
1
1
1
1
1
1
1
1
1
1
1
1
1
1
1
1
1
1
1
1
1
1
1
1
1
1
1
1
1
1
1
1
1
1
1
1
1
1
1
1
1
1
1
1
3
3
3
3
3
6
6
3
3
3
3
3
1
1
1
1
3
3
3
3
3
3
3
3
3
3
3
3
1
1
1
1
3
3
3
3
3
3
3
3
3
3
3
3
1
1
1
1
3
3
3
3
3
3
3
3
3
3
3
3
1
1
1
3
1
3
3
3
3
3
3
3
3
3
3
1
3
1
1
3
1
3
3
3
3
3
3
3
3
3
3
1
3
1
1
3
1
3
3
3
3
3
3
3
3
3
3
1
3
1
1
3
1
3
3
3
3
3
3
3
3
3
3
1
3
1
1
3
3
1
3
3
3
3
3
3
3
3
1
3
3
1
1
3
3
1
3
3
3
3
3
3
3
3
1
3
3
1
1
3
3
1
3
3
3
3
3
3
3
3
1
3
3
1
1
3
3
1
3
3
3
3
3
3
3
3
1
3
3
1
1
3
3
3
1
3
3
3
3
3
3
1
3
3
3
1
1
3
3
3
1
3
3
3
3
3
3
1
3
3
3
1
1
3
3
3
1
3
3
3
3
3
3
1
3
3
3
1
1
3
3
3
1
3
3
3
3
3
3
1
3
3
3
1
1
3
3
3
3
1
3
3
3
3
1
3
3
3
3
1
1
3
3
3
3
1
3
3
3
3
1
3
3
3
3
1
1
3
3
3
3
1
3
3
3
3
1
3
3
3
3
1
1
3
3
3
3
1
3
3
3
3
1
3
3
3
3
1
1
3
3
3
3
3
1
3
3
1
3
3
3
3
3
1
1
3
3
3
3
3
1
3
3
1
3
3
3
3
3
6
1
3
3
3
3
3
1
3
3
1
3
3
3
3
3
1
6
3
3
3
3
3
1
3
3
1
3
3
3
3
3
1
1
3
3
3
3
3
3
1
1
3
3
3
3
3
3
1
1
3
3
3
3
3
3
1
1
3
3
3
3
3
6
6
1
3
3
3
3
3
3
1
1
3
3
3
3
3
3
1
6
6
3
3
3
3
3
1
1
3
3
3
3
3
3
1
1
3
3
3
3
3
3
1
1
3
3
3
3
3
3
1
1
3
3
3
3
3
3
1
1
3
3
3
3
3
6
6
1
3
3
3
3
3
3
1
1
3
3
3
3
3
3
1
6
6
3
3
3
3
3
1
1
3
3
3
3
3
3
1
1
3
3
3
3
3
1
3
3
1
3
3
3
3
3
1
1
3
3
3
3
3
1
3
3
1
3
3
3
3
3
6
1
3
3
3
3
3
1
3
3
1
3
3
3
3
3
1
6
3
3
3
3
3
1
3
3
1
3
3
3
3
3
1
1
3
3
3
3
1
3
3
3
3
1
3
3
3
3
1
1
3
3
3
3
1
3
3
3
3
1
3
3
3
3
1
1
3
3
3
3
1
3
3
3
3
1
3
3
3
3
1
1
3
3
3
3
1
3
3
3
3
1
3
3
3
3
1
1
3
3
3
1
3
3
3
3
3
3
1
3
3
3
1
1
3
3
3
1
3
3
3
3
3
3
1
3
3
3
1
1
3
3
3
1
3
3
3
3
3
3
1
3
3
3
1
1
3
3
3
1
3
3
3
3
3
3
1
3
3
3
1
1
3
3
1
3
3
3
3
3
3
3
3
1
3
3
1
1
3
3
1
3
3
3
3
3
3
3
3
1
3
3
1
1
3
3
1
3
3
3
3
3
3
3
3
1
3
3
1
1
3
3
1
3
3
3
3
3
3
3
3
1
3
3
1
1
3
1
3
3
3
3
3
3
3
3
3
3
1
3
1
1
3
1
3
3
3
3
3
3
3
3
3
3
1
3
1
1
3
1
3
3
3
3
3
3
3
3
3
3
1
3
1
1
3
1
3
3
3
3
3
3
3
3
3
3
1
3
1
1
1
3
3
3
3
3
3
3
3
3
3
3
3
1
1
1
1
3
3
3
3
3
3
3
3
3
3
3
3
1
1
1
1
3
3
3
3
3
6
6
3
3
3
3
3
1
1
1
1
3
3
3
3
3
3
3
3
3
3
3
3
1
1
1
1
1
1
1
1
1
1
1
1
1
1
1
1
1
1
1
1
1
1
1
1
1
1
1
1
1
1
1
1
1
1
1
1
1
1
1
1
6
6
6
6
1
1
1
1
1
1
1
1
1
1
1
1
1
1
1
1
1
1
1
1
1
1
1
1
1
1
7
7
8
9
9
8
7
7
1
1
1
1
1
1
1
1
1
1
1
1
1
1
1
1
1
1
1
1
1
1
1
1
1
1
1
1
1
1
1
1
1
1
1
1
1
1
1
1
1
1
1
1
1
1
1
1
1
1
1
1
1
1
3
3
10
10
11
8
8
11
10
10
3
3
1
1
1
1
3
3
3
3
3
3
3
3
3
3
3
3
1
1
1
1
3
3
3
3
3
3
3
3
3
3
3
3
1
1
1
1
3
3
3
3
3
3
3
3
3
3
3
3
1
1
1
3
1
3
3
10
10
11
11
10
10
3
3
1
3
1
1
3
1
3
3
3
3
3
3
3
3
3
3
1
3
1
1
3
1
3
3
3
3
3
3
3
3
3
3
1
3
1
1
3
1
3
3
3
3
3
3
3
3
3
3
1
3
1
1
3
3
1
3
3
10
10
10
10
3
3
1
3
3
1
1
3
3
1
3
3
3
3
3
3
3
3
1
3
3
1
1
3
3
1
3
3
3
3
3
3
3
3
1
3
3
1
1
3
3
1
3
3
3
3
3
3
3
3
1
3
3
1
1
3
3
3
1
3
3
3
3
3
3
1
3
3
3
1
1
3
3
3
1
3
3
3
3
3
3
1
3
3
10
7
1
3
3
3
1
3
3
3
3
3
3
1
3
3
3
1
7
10
3
3
1
3
3
3
3
3
3
1
3
3
3
1
1
3
3
3
3
1
3
3
3
3
1
3
3
3
3
1
1
3
3
3
3
1
3
3
3
3
1
3
3
10
10
7
1
3
3
3
3
1
3
3
3
3
1
3
3
3
3
1
7
10
10
3
3
1
3
3
3
3
1
3
3
3
3
1
1
3
3
3
3
3
1
3
3
1
3
3
3
3
3
1
1
3
3
3
3
3
1
3
3
1
3
3
10
10
11
8
1
3
3
3
3
3
1
3
3
1
3
3
3
3
3
1
8
11
10
10
3
3
1
3
3
1
3
3
3
3
3
1
1
3
3
3
3
3
3
1
1
3
3
3
3
3
3
1
1
3
3
3
3
3
3
1
1
3
3
3
10
11
8
9
1
3
3
3
3
3
3
1
1
3
3
3
3
3
3
1
9
8
11
10
3
3
3
1
1
3
3
3
3
3
3
1
1
3
3
3
3
3
3
1
1
3
3
3
3
3
3
1
1
3
3
3
3
3
3
1
1
3
3
3
10
11
8
9
1
3
3
3
3
3
3
1
1
3
3
3
3
3
3
1
9
8
11
10
3
3
3
1
1
3
3
3
3
3
3
1
1
3
3
3
3
3
1
3
3
1
3
3
3
3
3
1
1
3
3
3
3
3
1
3
3
1
3
3
10
10
11
8
1
3
3
3
3
3
1
3
3
1
3
3
3
3
3
1
8
11
10
10
3
3
1
3
3
1
3
3
3
3
3
1
1
3
3
3
3
1
3
3
3
3
1
3
3
3
3
1
1
3
3
3
3
1
3
3
3
3
1
3
3
10
10
7
1
3
3
3
3
1
3
3
3
3
1
3
3
3
3
1
7
10
10
3
3
1
3
3
3
3
1
3
3
3
3
1
1
3
3
3
1
3
3
3
3
3
3
1
3
3
3
1
1
3
3
3
1
3
3
3
3
3
3
1
3
3
10
7
1
3
3
3
1
3
3
3
3
3
3
1
3
3
3
1
7
10
3
3
1
3
3
3
3
3
3
1
3
3
3
1
1
3
3
1
3
3
3
3
3
3
3
3
1
3
3
1
1
3
3
1
3
3
3
3
3
3
3
3
1
3
3
1
1
3
3
1
3
3
10
10
10
10
3
3
1
3
3
1
1
3
3
1
3
3
3
3
3
3
3
3
1
3
3
1
1
3
1
3
3
3
3
3
3
3
3
3
3
1
3
1
1
3
1
3
3
3
3
3
3
3
3
3
3
1
3
1
1
3
1
3
3
10
10
11
11
10
10
3
3
1
3
1
1
3
1
3
3
3
3
3
3
3
3
3
3
1
3
1
1
1
3
3
3
3
3
3
3
3
3
3
3
3
1
1
1
1
3
3
3
3
3
3
3
3
3
3
3
3
1
1
1
1
3
3
10
10
11
8
8
11
10
10
3
3
1
1
1
1
3
3
3
3
3
3
3
3
3
3
3
3
1
1
1
1
1
1
1
1
1
1
1
1
1
1
1
1
1
1
1
1
1
1
1
1
1
1
1
1
1
1
1
1
1
1
1
1
1
1
7
7
8
9
9
8
7
7
1
1
1
1
1
1
1
1
1
1
1
1
1
1
1
1
1
1
1
1
1
1
1
1
1
1
6
6
6
6
1
1
1
1
1
1
1
1
1
1
1
1
6
6
6
6
1
1
1
1
1
1
1
1
1
1
1
1
1
1
1
1
1
1
1
1
1
1
1
1
1
1
1
1
1
1
1
1
1
1
1
1
1
1
1
1
3
3
3
3
3
6
6
3
3
3
3
3
1
1
1
1
3
3
3
3
3
6
6
3
3
3
3
3
1
1
1
1
3
3
3
3
3
3
3
3
3
3
3
3
1
1
1
1
3
3
3
3
3
3
3
3
3
3
3
3
1
1
1
3
1
3
3
3
3
3
3
3
3
3
3
1
3
1
1
3
1
3
3
3
3
3
3
3
3
3
3
1
3
1
1
3
1
3
3
3
3
3
3
3
3
3
3
1
3
1
1
3
1
3
3
3
3
3
3
3
3
3
3
1
3
1
1
3
3
1
3
3
3
3
3
3
3
3
1
3
3
1
1
3
3
1
3
3
3
3
3
3
3
3
1
3
3
1
1
3
3
1
3
3
3
3
3
3
3
3
1
3
3
1
1
3
3
1
3
3
3
3
3
3
3
3
1
3
3
1
1
3
3
3
1
3
3
3
3
3
3
1
3
3
3
1
1
3
3
3
1
3
3
3
3
3
3
1
3
3
3
1
1
3
3
3
1
3
3
3
3
3
3
1
3
3
3
1
1
3
3
3
1
3
3
3
3
3
3
1
3
3
3
1
1
3
3
3
3
1
3
3
3
3
1
3
3
3
3
1
1
3
3
3
3
1
3
3
3
3
1
3
3
3
3
1
1
3
3
3
3
1
3
3
3
3
1
3
3
3
3
1
1
3
3
3
3
1
3
3
3
3
1
3
3
3
3
1
6
3
3
3
3
3
1
3
3
1
3
3
3
3
3
1
1
3
3
3
3
3
1
3
3
1
3
3
3
3
3
6
1
3
3
3
3
3
1
3
3
1
3
3
3
3
3
6
6
3
3
3
3
3
1
3
3
1
3
3
3
3
3
1
6
6
3
3
3
3
3
1
1
3
3
3
3
3
3
1
1
3
3
3
3
3
3
1
1
3
3
3
3
3
6
6
1
3
3
3
3
3
3
1
1
3
3
3
3
3
6
6
6
6
3
3
3
3
3
1
1
3
3
3
3
3
3
1
6
6
3
3
3
3
3
1
1
3
3
3
3
3
3
1
1
3
3
3
3
3
3
1
1
3
3
3
3
3
6
6
1
3
3
3
3
3
3
1
1
3
3
3
3
3
6
6
6
6
3
3
3
3
3
1
1
3
3
3
3
3
3
1
6
3
3
3
3
3
1
3
3
1
3
3
3
3
3
1
1
3
3
3
3
3
1
3
3
1
3
3
3
3
3
6
1
3
3
3
3
3
1
3
3
1
3
3
3
3
3
6
6
3
3
3
3
3
1
3
3
1
3
3
3
3
3
1
1
3
3
3
3
1
3
3
3
3
1
3
3
3
3
1
1
3
3
3
3
1
3
3
3
3
1
3
3
3
3
1
1
3
3
3
3
1
3
3
3
3
1
3
3
3
3
1
1
3
3
3
3
1
3
3
3
3
1
3
3
3
3
1
1
3
3
3
1
3
3
3
3
3
3
1
3
3
3
1
1
3
3
3
1
3
3
3
3
3
3
1
3
3
3
1
1
3
3
3
1
3
3
3
3
3
3
1
3
3
3
1
1
3
3
3
1
3
3
3
3
3
3
1
3
3
3
1
1
3
3
1
3
3
3
3
3
3
3
3
1
3
3
1
1
3
3
1
3
3
3
3
3
3
3
3
1
3
3
1
1
3
3
1
3
3
3
3
3
3
3
3
1
3
3
1
1
3
3
1
3
3
3
3
3
3
3
3
1
3
3
1
1
3
1
3
3
3
3
3
3
3
3
3
3
1
3
1
1
3
1
3
3
3
3
3
3
3
3
3
3
1
3
1
1
3
1
3
3
3
3
3
3
3
3
3
3
1
3
1
1
3
1
3
3
3
3
3
3
3
3
3
3
1
3
1
1
1
3
3
3
3
3
3
3
3
3
3
3
3
1
1
1
1
3
3
3
3
3
3
3
3
3
3
3
3
1
1
1
1
3
3
3
3
3
6
6
3
3
3
3
3
1
1
1
1
3
3
3
3
3
6
6
3
3
3
3
3
1
1
1
1
1
1
1
1
1
1
1
1
1
1
1
1
1
1
1
1
1
1
1
1
1
1
1
1
1
1
1
1
1
1
1
1
1
1
1
1
6
6
6
6
1
1
1
1
1
1
1
1
1
1
1
1
6
6
6
6
1
1
1
1
1
1
1
1
1
1
7
7
8
9
9
8
7
7
1
1
1
1
1
1
1
1
1
1
6
6
6
6
1
1
1
1
1
1
1
1
1
1
1
1
1
1
1
1
1
1
1
1
1
1
1
1
1
1
1
1
1
1
1
1
1
1
1
1
1
1
1
1
3
3
10
10
11
8
8
11
10
10
3
3
1
1
1
1
3
3
3
3
3
6
6
3
3
3
3
3
1
1
1
1
3
3
3
3
3
3
3
3
3
3
3
3
1
1
1
1
3
3
3
3
3
3
3
3
3
3
3
3
1
1
1
3
1
3
3
10
10
11
11
10
10
3
3
1
3
1
1
3
1
3
3
3
3
3
3
3
3
3
3
1
3
1
1
3
1
3
3
3
3
3
3
3
3
3
3
1
3
1
1
3
1
3
3
3
3
3
3
3
3
3
3
1
3
1
1
3
3
1
3
3
10
10
10
10
3
3
1
3
3
1
1
3
3
1
3
3
3
3
3
3
3
3
1
3
3
1
1
3
3
1
3
3
3
3
3
3
3
3
1
3
3
1
1
3
3
1
3
3
3
3
3
3
3
3
1
3
3
1
1
3
3
3
1
3
3
3
3
3
3
1
3
3
3
1
1
3
3
3
1
3
3
3
3
3
3
1
3
3
10
7
1
3
3
3
1
3
3
3
3
3
3
1
3
3
3
1
7
10
3
3
1
3
3
3
3
3
3
1
3
3
3
1
1
3
3
3
3
1
3
3
3
3
1
3
3
3
3
1
1
3
3
3
3
1
3
3
3
3
1
3
3
10
10
7
1
3
3
3
3
1
3
3
3
3
1
3
3
3
3
1
7
10
10
3
3
1
3
3
3
3
1
3
3
3
3
1
6
3
3
3
3
3
1
3
3
1
3
3
3
3
3
1
1
3
3
3
3
3
1
3
3
1
3
3
10
10
11
8
1
3
3
3
3
3
1
3
3
1
3
3
3
3
3
6
8
11
10
10
3
3
1
3
3
1
3
3
3
3
3
1
6
6
3
3
3
3
3
1
1
3
3
3
3
3
3
1
1
3
3
3
3
3
3
1
1
3
3
3
10
11
8
9
1
3
3
3
3
3
3
1
1
3
3
3
3
3
6
6
9
8
11
10
3
3
3
1
1
3
3
3
3
3
3
1
6
6
3
3
3
3
3
1
1
3
3
3
3
3
3
1
1
3
3
3
3
3
3
1
1
3
3
3
10
11
8
9
1
3
3
3
3
3
3
1
1
3
3
3
3
3
6
6
9
8
11
10
3
3
3
1
1
3
3
3
3
3
3
1
6
3
3
3
3
3
1
3
3
1
3
3
3
3
3
1
1
3
3
3
3
3
1
3
3
1
3
3
10
10
11
8
1
3
3
3
3
3
1
3
3
1
3
3
3
3
3
6
8
11
10
10
3
3
1
3
3
1
3
3
3
3
3
1
1
3
3
3
3
1
3
3
3
3
1
3
3
3
3
1
1
3
3
3
3
1
3
3
3
3
1
3
3
10
10
7
1
3
3
3
3
1
3
3
3
3
1
3
3
3
3
1
7
10
10
3
3
1
3
3
3
3
1
3
3
3
3
1
1
3
3
3
1
3
3
3
3
3
3
1
3
3
3
1
1
3
3
3
1
3
3
3
3
3
3
1
3
3
10
7
1
3
3
3
1
3
3
3
3
3
3
1
3
3
3
1
7
10
3
3
1
3
3
3
3
3
3
1
3
3
3
1
1
3
3
1
3
3
3
3
3
3
3
3
1
3
3
1
1
3
3
1
3
3
3
3
3
3
3
3
1
3
3
1
1
3
3
1
3
3
10
10
10
10
3
3
1
3
3
1
1
3
3
1
3
3
3
3
3
3
3
3
1
3
3
1
1
3
1
3
3
3
3
3
3
3
3
3
3
1
3
1
1
3
1
3
3
3
3
3
3
3
3
3
3
1
3
1
1
3
1
3
3
10
10
11
11
10
10
3
3
1
3
1
1
3
1
3
3
3
3
3
3
3
3
3
3
1
3
1
1
1
3
3
3
3
3
3
3
3
3
3
3
3
1
1
1
1
3
3
3
3
3
3
3
3
3
3
3
3
1
1
1
1
3
3
10
10
11
8
8
11
10
10
3
3
1
1
1
1
3
3
3
3
3
6
6
3
3
3
3
3
1
1
1
1
1
1
1
1
1
1
1
1
1
1
1
1
1
1
1
1
1
1
1
1
1
1
1
1
1
1
1
1
1
1
1
1
1
1
7
7
8
9
9
8
7
7
1
1
1
1
1
1
1
1
1
1
6
6
6
6
1
1
1
1
1
1
1
1
1
1
1
1
6
6
6
6
1
1
1
1
1
1
1
1
1
1
7
7
8
9
9
8
7
7
1
1
1
1
1
1
1
1
1
1
1
1
1
1
1
1
1
1
1
1
1
1
1
1
1
1
1
1
1
1
1
1
1
1
1
1
1
1
3
3
3
3
3
6
6
3
3
3
3
3
1
1
1
1
3
3
10
10
11
8
8
11
10
10
3
3
1
1
1
1
3
3
3
3
3
3
3
3
3
3
3
3
1
1
1
1
3
3
3
3
3
3
3
3
3
3
3
3
1
1
1
3
1
3
3
3
3
3
3
3
3
3
3
1
3
1
1
3
1
3
3
10
10
11
11
10
10
3
3
1
3
1
1
3
1
3
3
3
3
3
3
3
3
3
3
1
3
1
1
3
1
3
3
3
3
3
3
3
3
3
3
1
3
1
1
3
3
1
3
3
3
3
3
3
3
3
1
3
3
1
1
3
3
1
3
3
10
10
10
10
3
3
1
3
3
1
1
3
3
1
3
3
3
3
3
3
3
3
1
3
3
1
1
3
3
1
3
3
3
3
3
3
3
3
1
3
3
1
7
10
3
3
1
3
3
3
3
3
3
1
3
3
3
1
1
3
3
3
1
3
3
3
3
3
3
1
3
3
3
1
1
3
3
3
1
3
3
3
3
3
3
1
3
3
10
7
1
3
3
3
1
3
3
3
3
3
3
1
3
3
3
1
7
10
10
3
3
1
3
3
3
3
1
3
3
3
3
1
1
3
3
3
3
1
3
3
3
3
1
3
3
3
3
1
1
3
3
3
3
1
3
3
3
3
1
3
3
10
10
7
1
3
3
3
3
1
3
3
3
3
1
3
3
3
3
1
8
11
10
10
3
3
1
3
3
1
3
3
3
3
3
1
1
3
3
3
3
3
1
3
3
1
3
3
3
3
3
6
1
3
3
3
3
3
1
3
3
1
3
3
10
10
11
8
6
3
3
3
3
3
1
3
3
1
3
3
3
3
3
1
9
8
11
10
3
3
3
1
1
3
3
3
3
3
3
1
1
3
3
3
3
3
3
1
1
3
3
3
3
3
6
6
1
3
3
3
3
3
3
1
1
3
3
3
10
11
8
9
6
6
3
3
3
3
3
1
1
3
3
3
3
3
3
1
9
8
11
10
3
3
3
1
1
3
3
3
3
3
3
1
1
3
3
3
3
3
3
1
1
3
3
3
3
3
6
6
1
3
3
3
3
3
3
1
1
3
3
3
10
11
8
9
6
6
3
3
3
3
3
1
1
3
3
3
3
3
3
1
8
11
10
10
3
3
1
3
3
1
3
3
3
3
3
1
1
3
3
3
3
3
1
3
3
1
3
3
3
3
3
6
1
3
3
3
3
3
1
3
3
1
3
3
10
10
11
8
6
3
3
3
3
3
1
3
3
1
3
3
3
3
3
1
7
10
10
3
3
1
3
3
3
3
1
3
3
3
3
1
1
3
3
3
3
1
3
3
3
3
1
3
3
3
3
1
1
3
3
3
3
1
3
3
3
3
1
3
3
10
10
7
1
3
3
3
3
1
3
3
3
3
1
3
3
3
3
1
7
10
3
3
1
3
3
3
3
3
3
1
3
3
3
1
1
3
3
3
1
3
3
3
3
3
3
1
3
3
3
1
1
3
3
3
1
3
3
3
3
3
3
1
3
3
10
7
1
3
3
3
1
3
3
3
3
3
3
1
3
3
3
1
1
3
3
1
3
3
3
3
3
3
3
3
1
3
3
1
1
3
3
1
3
3
3
3
3
3
3
3
1
3
3
1
1
3
3
1
3
3
3
3
3
3
3
3
1
3
3
1
1
3
3
1
3
3
10
10
10
10
3
3
1
3
3
1
1
3
1
3
3
3
3
3
3
3
3
3
3
1
3
1
1
3
1
3
3
3
3
3
3
3
3
3
3
1
3
1
1
3
1
3
3
3
3
3
3
3
3
3
3
1
3
1
1
3
1
3
3
10
10
11
11
10
10
3
3
1
3
1
1
1
3
3
3
3
3
3
3
3
3
3
3
3
1
1
1
1
3
3
3
3
3
3
3
3
3
3
3
3
1
1
1
1
3
3
3
3
3
6
6
3
3
3
3
3
1
1
1
1
3
3
10
10
11
8
8
11
10
10
3
3
1
1
1
1
1
1
1
1
1
1
1
1
1
1
1
1
1
1
1
1
1
1
1
1
1
1
1
1
1
1
1
1
1
1
1
1
1
1
1
1
6
6
6
6
1
1
1
1
1
1
1
1
1
1
7
7
8
9
9
8
7
7
1
1
1
1
0
0
0
0
0
0
0
0
0
0
0
0
0
0
0
0
0
0
0
0
0
0
0
0
0
0
0
0
0
0
0
0
0
0
0
0
0
12
13
14
15
15
12
0
0
0
0
0
0
0
0
0
0
0
0
0
0
0
0
0
0
0
0
0
0
0
0
0
0
0
0
0
0
0
0
0
0
0
0
0
0
0
0
0
0
0
0
0
0
0
0
0
0
0
0
0
0
0
0
0
0
12
13
14
15
15
12
0
0
0
0
0
0
0
0
0
0
0
0
0
13
13
0
0
0
0
0
0
0
0
0
0
0
0
0
0
0
0
0
0
0
0
0
0
0
0
0
0
0
0
0
0
0
0
0
0
0
0
0
0
0
0
0
0
0
12
13
14
15
15
12
0
0
0
0
0
0
0
0
0
0
0
0
13
0
0
13
0
0
0
0
0
0
0
0
0
0
16
17
16
16
17
16
0
0
0
0
0
0
0
0
0
0
0
15
15
0
0
0
0
0
0
0
0
0
0
0
0
0
18
19
20
21
21
18
0
0
0
0
0
0
0
0
0
0
0
0
19
15
15
19
0
0
0
0
0
0
0
0
0
16
16
17
16
16
17
16
16
0
0
0
0
0
0
0
0
15
15
15
17
16
16
16
16
0
0
0
0
0
0
0
0
15
15
15
15
15
15
15
15
0
0
0
0
0
0
0
0
16
16
16
16
17
15
15
15
0
0
0
0
0
0
0
0
16
16
17
16
16
17
16
16
0
0
0
0
12
12
12
18
15
15
17
17
16
16
16
16
16
0
0
0
0
0
13
19
15
15
15
15
15
15
15
15
0
0
0
0
0
0
0
16
16
16
16
16
17
17
15
15
18
12
12
12
0
0
0
0
16
16
17
16
16
17
16
16
0
0
0
0
15
15
15
21
15
15
22
17
17
17
17
17
17
0
0
0
0
13
0
15
15
17
22
22
22
22
17
15
15
0
0
0
0
0
0
17
17
17
17
17
17
22
15
15
19
13
13
13
0
0
0
0
16
16
17
16
16
17
16
16
19
13
0
0
15
15
15
21
15
15
22
22
16
16
16
16
16
0
0
0
0
13
0
15
17
17
17
22
22
17
17
17
15
0
0
0
0
0
0
16
16
16
16
16
22
22
15
15
20
14
14
14
0
0
0
15
17
17
17
22
22
17
17
17
15
0
13
0
14
14
14
20
15
15
22
22
16
16
16
16
16
0
0
0
0
0
13
19
16
16
17
16
16
17
16
16
0
0
0
0
0
0
0
16
16
16
16
16
22
22
15
15
21
15
15
15
0
0
0
15
15
17
22
22
22
22
17
15
15
0
13
0
13
13
13
19
15
15
22
17
17
17
17
17
17
0
0
0
0
0
0
0
16
16
17
16
16
17
16
16
0
0
0
0
0
0
0
17
17
17
17
17
17
22
15
15
21
15
15
15
0
0
0
0
15
15
15
15
15
15
15
15
19
13
0
0
12
12
12
18
15
15
17
17
16
16
16
16
16
0
0
0
0
0
0
0
16
16
17
16
16
17
16
16
0
0
0
0
0
0
0
16
16
16
16
16
17
17
15
15
18
12
12
12
0
0
0
0
15
15
15
15
15
15
15
15
0
0
0
0
0
0
0
0
15
15
15
17
16
16
16
16
0
0
0
0
0
0
0
0
16
16
17
16
16
17
16
16
0
0
0
0
0
0
0
0
16
16
16
16
17
15
15
15
0
0
0
0
0
0
0
0
0
18
21
21
20
19
18
0
0
0
0
0
0
0
0
0
0
19
15
15
19
0
0
0
0
0
0
0
0
0
0
0
0
16
17
16
16
17
16
0
0
0
0
0
0
0
0
0
0
0
0
0
15
15
0
0
0
0
0
0
0
0
0
0
0
12
15
15
14
13
12
0
0
0
0
0
0
0
0
0
0
13
0
0
13
0
0
0
0
0
0
0
0
0
0
0
0
0
0
0
0
0
0
0
0
0
0
0
0
0
0
0
0
0
0
0
0
0
0
0
0
0
0
0
0
0
0
0
0
12
15
15
14
13
12
0
0
0
0
0
0
0
0
0
0
0
13
13
0
0
0
0
0
0
0
0
0
0
0
0
0
0
0
0
0
0
0
0
0
0
0
0
0
0
0
0
0
0
0
0
0
0
0
0
0
0
0
0
0
0
0
0
0
12
15
15
14
13
12
0
0
0
0
0
0
0
0
0
0
0
0
0
0
0
0
0
0
0
0
0
0
0
0
0
0
0
0
0
0
0
0
0
0
0
0
0
0
0
0
0
0
0
0
0
0
0
0
0
0
0
0
0
0
0
0
0
23
23
23
23
23
23
23
23
0
0
0
0
0
0
0
0
0
0
0
0
0
0
0
0
0
0
0
0
0
0
0
0
0
12
13
14
15
15
12
0
0
0
0
0
0
0
0
0
0
0
0
0
0
0
0
0
0
0
0
0
0
0
0
23
24
24
24
24
24
24
24
24
23
0
0
0
0
0
0
0
0
0
23
23
23
23
23
23
23
0
0
0
0
0
0
0
0
12
13
14
15
15
12
0
0
0
0
0
0
0
0
23
23
23
23
23
25
13
0
0
0
0
0
0
0
0
23
24
26
26
26
26
26
26
26
26
24
23
0
0
0
0
0
0
0
23
24
24
24
24
24
24
24
23
0
0
0
0
0
0
0
12
13
14
15
15
12
0
0
0
0
0
0
0
23
24
24
24
24
25
24
24
13
0
0
0
0
0
0
23
24
26
26
2
27
2
2
27
2
26
26
24
23
0
0
0
0
0
23
24
28
28
26
26
26
26
26
24
23
0
0
0
0
0
0
18
19
20
21
21
18
0
0
0
0
0
0
23
24
26
26
26
26
25
28
28
19
23
0
0
0
0
0
23
24
26
2
2
27
2
2
27
2
2
26
24
23
0
0
0
0
0
29
28
28
27
2
2
2
2
26
26
24
23
0
0
0
23
29
29
29
29
29
29
29
29
23
0
0
0
23
24
26
26
2
2
2
2
27
28
28
29
0
0
0
0
0
23
24
26
2
2
27
2
2
27
2
2
26
24
23
0
12
12
12
18
29
28
27
27
2
2
2
2
2
26
24
23
0
0
13
19
28
28
28
28
28
28
28
28
24
23
0
0
23
24
26
2
2
2
2
2
27
27
28
29
18
12
12
12
0
23
24
26
2
2
27
2
2
27
2
2
26
24
23
0
15
15
15
21
29
28
30
27
27
27
27
27
27
26
24
23
0
13
24
28
28
27
30
30
30
30
27
28
28
24
23
0
23
24
26
27
27
27
27
27
27
30
28
29
19
13
13
13
0
23
24
26
2
2
27
2
2
27
2
2
25
25
23
0
15
15
15
21
29
28
30
30
2
2
2
2
2
26
24
23
0
25
24
28
27
27
27
30
30
27
27
27
28
24
23
0
23
24
26
2
2
2
2
2
30
30
28
29
20
14
14
14
0
23
24
28
27
27
27
30
30
27
27
27
28
24
25
0
14
14
14
20
29
28
30
30
2
2
2
2
2
26
24
23
0
23
25
25
2
2
27
2
2
27
2
2
26
24
23
0
23
24
26
2
2
2
2
2
30
30
28
29
21
15
15
15
0
23
24
28
28
27
30
30
30
30
27
28
28
24
13
0
13
13
13
19
29
28
30
27
27
27
27
27
27
26
24
23
0
23
24
26
2
2
27
2
2
27
2
2
26
24
23
0
23
24
26
27
27
27
27
27
27
30
28
29
21
15
15
15
0
0
23
24
28
28
28
28
28
28
28
28
19
13
0
0
12
12
12
18
29
28
27
27
2
2
2
2
2
26
24
23
0
23
24
26
2
2
27
2
2
27
2
2
26
24
23
0
23
24
26
2
2
2
2
2
27
27
28
29
18
12
12
12
0
0
0
23
29
29
29
29
29
29
29
29
23
0
0
0
0
0
0
0
29
28
28
27
2
2
2
2
26
26
24
23
0
23
24
26
2
2
27
2
2
27
2
2
26
24
23
0
23
24
26
26
2
2
2
2
27
28
28
29
0
0
0
0
0
0
0
0
0
18
21
21
20
19
18
0
0
0
0
0
0
0
0
0
23
19
28
28
25
26
26
26
26
24
23
0
0
23
24
26
26
2
27
2
2
27
2
26
26
24
23
0
0
23
24
26
26
26
26
26
28
28
24
23
0
0
0
0
0
0
0
0
0
12
15
15
14
13
12
0
0
0
0
0
0
0
0
0
0
13
24
24
25
24
24
24
24
23
0
0
0
0
23
24
26
26
26
26
26
26
26
26
24
23
0
0
0
0
23
24
24
24
24
24
24
24
23
0
0
0
0
0
0
0
0
0
0
12
15
15
14
13
12
0
0
0
0
0
0
0
0
0
0
0
13
25
23
23
23
23
23
0
0
0
0
0
0
23
24
24
24
24
24
24
24
24
23
0
0
0
0
0
0
23
23
23
23
23
23
23
0
0
0
0
0
0
0
0
0
0
0
12
15
15
14
13
12
0
0
0
0
0
0
0
0
0
0
0
0
0
0
0
0
0
0
0
0
0
0
0
0
0
23
23
23
23
23
23
23
23
0
0
0
0
0
0
0
0
0
0
0
0
0
0
0
0
0
0
0
0
0
0
14
14
14
18
21
21
20
19
18
0
0
0
0
0
0
0
0
0
0
0
0
0
12
31
12
0
0
0
0
0
0
0
0
0
0
0
0
0
0
0
0
0
0
0
0
0
0
0
0
0
0
12
31
12
0
0
0
0
0
0
0
0
0
0
14
0
12
12
12
12
12
12
12
12
0
0
0
0
0
0
0
0
0
0
0
0
12
31
13
13
13
13
0
0
0
0
0
0
0
0
0
0
0
0
0
0
0
0
0
0
0
0
0
0
0
12
31
12
0
0
0
0
0
0
0
0
0
13
13
13
13
32
12
12
12
12
32
18
0
0
0
0
0
0
0
0
0
0
0
0
18
31
19
20
20
13
14
14
0
0
0
0
0
33
33
33
33
33
33
0
0
0
0
0
0
0
0
0
0
18
31
18
0
0
0
0
0
0
0
0
0
13
20
12
13
13
32
12
12
32
32
18
12
0
0
0
0
0
0
0
0
0
0
12
12
12
12
12
12
13
0
14
0
0
0
0
0
33
34
34
34
34
33
0
0
0
0
0
0
0
0
12
12
12
12
12
12
0
0
0
0
0
0
0
0
13
20
12
18
19
32
15
15
32
8
35
12
0
0
0
0
0
0
0
0
0
18
18
18
18
18
18
13
13
12
14
0
0
0
0
0
33
34
34
34
34
33
0
0
0
0
0
0
12
18
18
35
18
35
18
18
18
0
0
0
0
0
0
12
13
19
12
18
32
32
15
15
32
32
18
12
18
12
12
0
0
33
33
33
32
32
32
32
32
32
19
13
32
12
18
0
0
0
0
0
32
32
32
32
32
32
0
0
0
0
0
18
12
32
32
8
32
8
32
32
32
32
33
33
33
0
0
31
31
31
12
18
32
32
15
15
32
8
35
12
31
31
31
0
0
33
34
34
32
32
32
32
32
32
32
32
12
12
21
0
0
0
0
18
32
32
15
15
32
32
18
0
0
0
0
19
12
12
32
32
32
32
32
32
32
32
34
34
33
0
0
12
12
18
12
18
32
32
15
15
32
32
18
12
18
12
12
0
0
33
34
34
32
15
15
15
15
15
15
12
12
12
21
0
0
0
12
18
32
32
15
15
32
32
18
12
0
0
0
20
12
12
12
15
15
15
15
15
15
32
34
34
33
0
0
0
0
0
12
18
32
32
15
15
32
32
18
12
0
0
0
0
0
33
34
34
32
15
15
15
15
15
15
12
12
12
20
12
12
18
12
18
32
32
15
15
32
32
18
12
18
12
12
21
12
12
12
15
15
15
15
15
15
32
34
34
33
0
0
0
0
0
0
18
32
32
15
15
32
32
18
0
0
0
0
0
0
33
34
34
32
32
32
32
32
32
32
32
12
12
19
31
31
31
12
35
8
32
15
15
32
32
18
12
31
31
31
21
12
12
32
32
32
32
32
32
32
32
34
34
33
0
0
0
0
0
0
0
32
32
32
32
32
32
0
0
0
0
0
0
0
33
33
33
32
32
32
32
8
32
8
32
32
12
18
12
12
18
12
18
32
32
15
15
32
32
18
12
19
13
12
18
12
32
13
19
32
32
32
32
32
32
33
33
33
0
0
0
0
0
0
0
33
34
34
34
34
33
0
0
0
0
0
0
0
0
0
0
0
18
18
18
35
18
35
18
18
12
0
0
0
0
12
35
8
32
15
15
32
19
18
12
20
13
0
14
12
13
13
18
18
18
18
18
18
0
0
0
0
0
0
0
0
0
0
0
33
34
34
34
34
33
0
0
0
0
0
0
0
0
0
0
0
0
12
12
12
12
12
12
0
0
0
0
0
0
12
18
32
32
12
12
32
13
13
12
20
13
0
14
0
13
12
12
12
12
12
12
0
0
0
0
0
0
0
0
0
0
0
0
33
33
33
33
33
33
0
0
0
0
0
0
0
0
0
0
0
0
0
18
31
18
0
0
0
0
0
0
0
0
0
18
32
12
12
12
12
32
13
13
13
13
0
14
14
13
20
20
19
31
18
0
0
0
0
0
0
0
0
0
0
0
0
0
0
0
0
0
0
0
0
0
0
0
0
0
0
0
0
0
0
0
0
12
31
12
0
0
0
0
0
0
0
0
0
12
12
12
12
12
12
12
12
0
14
0
0
0
0
13
13
13
13
31
12
0
0
0
0
0
0
0
0
0
0
0
0
0
0
0
0
0
0
0
0
0
0
0
0
0
0
0
0
0
0
0
0
12
31
12
0
0
0
0
0
0
0
0
0
0
18
19
20
21
21
18
14
14
14
0
0
0
0
0
0
0
12
31
12
0
0
0
0
0
0
0
0
0
0
14
14
14
18
21
21
20
19
18
0
0
0
0
0
0
0
0
0
0
0
0
0
12
31
12
0
0
0
0
0
0
0
0
0
36
35
8
9
9
8
35
36
0
0
0
0
0
0
0
0
0
12
31
12
0
0
0
0
0
0
0
0
0
0
14
0
12
12
12
12
12
12
12
12
0
0
0
0
0
0
0
0
0
0
0
0
12
31
13
13
13
13
0
0
0
0
0
0
36
35
8
9
9
8
35
36
0
0
0
0
0
0
0
0
0
12
31
12
0
0
0
0
0
0
0
0
0
13
13
13
13
32
12
12
12
12
32
18
0
0
0
0
0
0
0
0
0
0
0
0
18
31
19
20
20
13
14
14
0
0
0
36
35
8
8
9
9
8
8
35
36
0
0
0
0
0
0
0
0
18
31
18
0
0
0
0
0
0
0
0
0
13
20
12
13
13
32
12
12
32
37
38
12
0
0
0
0
0
36
36
36
36
0
12
12
12
12
12
12
13
0
14
0
0
0
36
35
8
9
9
9
9
8
35
36
0
0
0
0
0
0
12
38
12
38
12
12
0
36
36
36
36
0
0
0
13
20
12
18
19
32
15
15
37
9
8
38
0
0
0
36
36
35
35
35
35
38
18
18
18
18
18
13
13
12
14
0
0
0
36
35
8
9
9
9
9
8
35
36
0
0
0
0
12
18
38
8
38
8
38
18
38
35
35
35
35
36
36
12
13
19
12
18
32
32
15
15
32
37
38
12
18
12
12
35
35
8
8
8
39
37
32
32
32
32
19
13
32
12
18
0
0
0
36
35
39
39
39
39
39
39
35
36
0
0
0
18
12
32
37
9
37
9
37
32
37
39
8
8
8
35
35
31
31
31
12
18
32
32
15
15
37
9
8
38
31
31
31
8
8
8
9
9
39
37
32
32
32
32
32
32
12
12
21
0
0
0
0
38
37
37
40
40
37
37
38
0
0
0
0
19
12
12
32
37
32
37
32
32
37
39
9
9
8
8
8
12
12
18
12
18
32
32
15
15
32
37
38
12
18
12
12
9
9
9
9
9
39
40
15
15
15
15
15
12
12
12
21
0
0
0
12
18
32
32
15
15
32
32
18
12
0
0
0
20
12
12
12
15
15
15
15
15
40
39
9
9
9
9
9
0
0
0
12
18
32
32
15
15
32
32
18
12
0
0
0
9
9
9
9
9
39
40
15
15
15
15
15
12
12
12
20
12
12
18
12
38
37
32
15
15
32
32
18
12
18
12
12
21
12
12
12
15
15
15
15
15
40
39
9
9
9
9
9
0
0
0
0
38
37
37
40
40
37
37
38
0
0
0
0
8
8
8
9
9
39
37
32
32
37
32
37
32
12
12
19
31
31
31
38
8
9
37
15
15
32
32
18
12
31
31
31
21
12
12
32
32
32
32
32
32
37
39
9
9
8
8
8
0
0
0
36
35
39
39
39
39
39
39
35
36
0
0
0
35
35
8
8
8
39
37
32
37
9
37
9
37
32
12
18
12
12
18
12
38
37
32
15
15
32
32
18
12
19
13
12
18
12
32
13
19
32
32
32
32
37
39
8
8
8
35
35
0
0
0
36
35
8
9
9
9
9
8
35
36
0
0
0
36
36
35
35
35
35
38
18
38
8
38
8
38
18
12
0
0
0
0
38
8
9
37
15
15
32
19
18
12
20
13
0
14
12
13
13
18
18
18
18
18
38
35
35
35
35
36
36
0
0
0
36
35
8
9
9
9
9
8
35
36
0
0
0
0
0
36
36
36
36
0
12
12
38
12
38
12
0
0
0
0
0
0
12
38
37
32
12
12
32
13
13
12
20
13
0
14
0
13
12
12
12
12
12
12
0
36
36
36
36
0
0
0
0
0
36
35
8
8
9
9
8
8
35
36
0
0
0
0
0
0
0
0
0
0
0
18
31
18
0
0
0
0
0
0
0
0
0
18
32
12
12
12
12
32
13
13
13
13
0
14
14
13
20
20
19
31
18
0
0
0
0
0
0
0
0
0
0
0
0
36
35
8
9
9
8
35
36
0
0
0
0
0
0
0
0
0
0
0
0
12
31
12
0
0
0
0
0
0
0
0
0
12
12
12
12
12
12
12
12
0
14
0
0
0
0
13
13
13
13
31
12
0
0
0
0
0
0
0
0
0
0
0
0
36
35
8
9
9
8
35
36
0
0
0
0
0
0
0
0
0
0
0
0
12
31
12
0
0
0
0
0
0
0
0
0
0
18
19
20
21
21
18
14
14
14
0
0
0
0
0
0
0
12
31
12
0
0
0
0
0
0
0
0
0
0
14
14
14
18
21
21
20
19
18
0
0
0
0
0
0
0
0
0
0
0
0
0
12
31
12
0
0
0
0
0
0
0
0
0
36
35
8
9
9
8
35
36
0
0
0
0
0
0
0
0
0
12
31
12
0
0
0
0
0
0
0
0
0
0
14
0
12
12
12
12
12
12
12
12
0
0
0
0
0
0
0
0
0
0
0
0
12
31
13
13
13
13
0
0
0
0
0
0
36
35
8
9
9
8
35
36
0
0
0
0
0
0
0
0
0
12
31
12
0
0
0
0
0
0
0
0
0
13
13
13
13
32
12
12
12
12
32
18
0
0
0
0
0
0
0
0
0
0
0
0
18
31
19
20
20
13
14
14
0
0
0
0
36
35
8
9
9
8
35
36
0
0
0
0
0
0
0
0
0
18
31
18
0
0
0
0
0
0
0
0
0
13
20
12
13
13
32
12
12
32
32
18
12
0
0
0
0
0
0
0
0
0
0
12
12
12
12
12
12
13
0
14
0
0
0
0
0
36
33
9
9
35
36
0
0
0
0
0
0
0
0
12
12
12
12
12
12
0
0
0
0
0
0
0
0
13
20
12
18
19
32
15
15
32
8
35
12
0
0
0
36
36
36
0
0
0
18
18
18
18
18
18
13
13
12
14
0
0
0
0
0
36
33
9
9
35
36
0
0
0
0
0
0
12
18
18
35
18
35
18
18
18
0
0
0
36
36
36
12
13
19
12
18
32
32
15
15
32
32
18
12
18
12
12
35
35
35
36
36
37
32
32
32
32
32
19
13
32
12
18
0
0
0
0
0
37
39
39
39
39
37
0
0
0
0
0
18
12
32
32
8
32
8
32
32
32
37
36
36
35
35
35
31
31
31
12
18
32
32
15
15
32
8
35
12
31
31
31
8
8
8
35
35
39
37
32
32
32
32
32
32
12
12
21
0
0
0
0
18
32
37
40
40
37
32
18
0
0
0
0
19
12
12
32
32
32
32
32
32
37
39
33
33
8
8
8
12
12
18
12
18
32
32
15
15
32
32
18
12
18
12
12
9
9
9
9
9
39
40
15
15
15
15
15
12
12
12
21
0
0
0
12
18
32
32
15
15
32
32
18
12
0
0
0
20
12
12
12
15
15
15
15
15
40
39
9
9
9
9
9
0
0
0
12
18
32
32
15
15
32
32
18
12
0
0
0
9
9
9
9
9
39
40
15
15
15
15
15
12
12
12
20
12
12
18
12
18
32
32
15
15
32
32
18
12
18
12
12
21
12
12
12
15
15
15
15
15
40
39
9
9
9
9
9
0
0
0
0
18
32
37
40
40
37
32
18
0
0
0
0
8
8
8
33
33
39
37
32
32
32
32
32
32
12
12
19
31
31
31
12
35
8
32
15
15
32
32
18
12
31
31
31
21
12
12
32
32
32
32
32
32
37
39
35
35
8
8
8
0
0
0
0
0
37
39
39
39
39
37
0
0
0
0
0
35
35
35
36
36
37
32
32
32
8
32
8
32
32
12
18
12
12
18
12
18
32
32
15
15
32
32
18
12
19
13
12
18
12
32
13
19
32
32
32
32
32
37
36
36
35
35
35
0
0
0
0
0
36
35
9
9
33
36
0
0
0
0
0
36
36
36
0
0
0
18
18
18
35
18
35
18
18
12
0
0
0
0
12
35
8
32
15
15
32
19
18
12
20
13
0
14
12
13
13
18
18
18
18
18
18
0
0
0
36
36
36
0
0
0
0
0
36
35
9
9
33
36
0
0
0
0
0
0
0
0
0
0
0
0
12
12
12
12
12
12
0
0
0
0
0
0
12
18
32
32
12
12
32
13
13
12
20
13
0
14
0
13
12
12
12
12
12
12
0
0
0
0
0
0
0
0
0
0
0
36
35
8
9
9
8
35
36
0
0
0
0
0
0
0
0
0
0
0
0
18
31
18
0
0
0
0
0
0
0
0
0
18
32
12
12
12
12
32
13
13
13
13
0
14
14
13
20
20
19
31
18
0
0
0
0
0
0
0
0
0
0
0
0
36
35
8
9
9
8
35
36
0
0
0
0
0
0
0
0
0
0
0
0
12
31
12
0
0
0
0
0
0
0
0
0
12
12
12
12
12
12
12
12
0
14
0
0
0
0
13
13
13
13
31
12
0
0
0
0
0
0
0
0
0
0
0
0
36
35
8
9
9
8
35
36
0
0
0
0
0
0
0
0
0
0
0
0
12
31
12
0
0
0
0
0
0
0
0
0
0
18
19
20
21
21
18
14
14
14
0
0
0
0
0
0
0
12
31
12
0
0
0
0
0
0
0
0
0
0
0
0
0
12
15
15
14
13
12
0
0
0
0
0
0
0
0
0
0
12
15
15
14
13
12
0
0
0
0
0
0
0
0
0
0
0
0
0
12
31
12
0
0
0
0
0
0
0
0
0
0
12
31
12
0
0
0
0
0
0
0
0
0
0
0
12
12
21
15
15
14
13
12
0
0
0
0
0
0
0
0
0
0
12
15
15
14
13
21
12
12
0
0
0
0
0
0
0
0
0
0
0
12
31
12
0
0
0
0
0
0
0
0
0
0
12
31
12
0
0
0
0
0
0
0
0
0
0
12
12
21
15
15
15
14
13
12
0
0
0
0
0
0
0
0
0
0
12
15
15
14
13
15
21
12
12
0
0
0
0
0
0
0
0
0
0
12
31
12
0
0
0
0
0
0
0
0
0
0
12
31
12
0
0
0
0
0
0
0
0
0
12
12
12
12
21
15
15
14
13
12
0
0
0
0
0
0
0
0
0
0
12
15
15
14
13
21
12
12
12
12
0
0
0
0
0
0
0
0
0
12
31
12
0
0
0
0
0
0
0
0
0
0
12
31
12
0
0
0
0
0
0
0
0
0
12
21
12
12
12
21
21
20
19
18
0
0
0
0
0
0
0
0
0
0
18
21
21
20
19
12
12
12
21
12
0
0
0
0
0
0
0
0
0
12
31
12
0
0
0
0
0
0
0
0
0
0
12
31
12
0
0
0
0
0
0
0
0
12
21
15
21
12
12
12
12
12
12
12
12
12
12
12
12
12
12
12
12
12
12
12
12
12
12
12
12
21
15
21
12
0
0
0
0
0
0
0
0
12
31
12
18
12
12
12
12
12
12
12
12
18
12
31
12
0
0
0
0
0
0
0
0
13
13
13
13
19
12
31
31
31
31
31
31
31
31
31
31
31
31
31
31
31
31
31
31
31
31
12
21
15
15
15
15
0
0
0
0
0
0
0
0
12
31
12
21
15
15
15
15
13
13
13
13
19
12
31
12
0
0
0
0
0
0
0
0
14
14
14
14
20
12
31
12
12
12
12
12
12
12
12
12
12
12
12
12
12
12
12
12
12
31
12
21
15
15
15
15
0
0
0
0
0
0
0
0
12
31
12
21
15
15
15
15
14
14
14
14
20
12
31
12
0
0
0
0
0
0
0
0
15
15
15
15
21
12
31
12
0
0
0
0
0
0
0
0
0
0
0
0
0
0
0
0
12
31
12
20
14
14
14
14
12
12
12
12
12
12
12
12
12
31
12
20
14
14
14
14
15
15
15
15
21
12
31
12
12
12
12
12
12
12
12
12
15
15
15
15
21
12
31
12
0
0
0
0
0
0
0
0
0
0
0
0
0
0
0
0
12
31
12
19
13
13
13
13
31
31
31
31
31
31
31
31
31
31
12
19
13
13
13
13
15
15
15
15
21
12
31
31
31
31
31
31
31
31
31
31
12
12
12
12
18
12
31
12
0
0
0
0
0
0
0
0
0
0
0
0
0
0
0
0
12
31
12
18
12
12
12
12
12
12
12
12
12
12
12
12
12
12
12
12
21
15
21
12
12
21
15
21
12
12
12
12
12
12
12
12
12
12
12
12
0
0
0
0
0
12
31
12
0
0
0
0
0
0
0
0
0
0
0
0
0
0
0
0
12
31
12
0
0
0
0
0
0
0
0
0
0
18
19
20
21
21
12
12
12
21
12
0
0
12
21
12
12
12
19
20
21
21
18
0
0
0
0
0
0
0
0
0
0
12
31
12
0
0
0
0
0
0
0
0
0
0
0
0
0
0
0
0
12
31
12
0
0
0
0
0
0
0
0
0
0
12
13
14
15
15
21
12
12
12
12
0
0
12
12
12
12
21
13
14
15
15
12
0
0
0
0
0
0
0
0
0
0
12
31
12
0
0
0
0
0
0
0
0
0
0
0
0
0
0
0
0
12
31
12
0
0
0
0
0
0
0
0
0
0
12
13
14
15
15
15
21
12
12
0
0
0
0
12
12
21
15
13
14
15
15
12
0
0
0
0
0
0
0
0
0
0
12
31
12
0
0
0
0
0
0
0
0
0
0
0
0
0
0
0
0
12
31
12
0
0
0
0
0
0
0
0
0
0
12
13
14
15
15
21
12
12
0
0
0
0
0
0
12
12
21
13
14
15
15
12
0
0
0
0
0
0
0
0
0
0
12
31
12
0
0
0
0
0
0
0
0
0
0
0
0
0
0
0
0
12
31
12
0
0
0
0
0
0
0
0
0
0
12
13
14
15
15
12
0
0
0
0
0
0
0
0
0
0
12
13
14
15
15
12
0
0
0
0
0
1
1
1
1
7
7
8
9
9
8
7
7
1
1
1
1
1
1
1
1
7
7
8
9
9
8
7
7
1
1
1
1
1
1
1
1
1
1
1
1
1
1
1
1
1
1
1
1
1
1
1
1
1
1
1
1
1
1
1
1
1
1
1
1
1
1
3
3
10
10
11
8
8
11
10
10
3
3
1
1
1
1
3
3
10
10
11
8
8
11
10
10
3
3
1
1
1
1
3
3
3
3
3
3
3
3
3
3
3
3
1
1
1
1
3
3
3
3
3
3
3
3
3
3
3
3
1
1
1
3
1
3
3
10
10
11
11
10
10
3
3
1
3
1
1
3
1
3
3
10
10
11
11
10
10
3
3
1
3
1
1
3
1
3
3
3
3
3
3
3
3
3
3
1
3
1
1
3
1
3
3
3
3
3
3
3
3
3
3
1
3
1
1
3
3
1
3
3
10
10
10
10
3
3
1
3
3
1
1
3
3
1
3
3
10
10
10
10
3
3
1
3
3
1
1
3
3
1
3
3
3
3
3
3
3
3
1
3
3
1
1
3
3
1
3
3
3
3
3
3
3
3
1
3
3
1
7
10
3
3
1
3
3
3
3
3
3
1
3
3
3
1
1
3
3
3
1
3
3
3
3
3
3
1
3
3
10
7
1
3
3
3
1
3
3
3
3
3
3
1
3
3
10
7
7
10
3
3
1
3
3
3
3
3
3
1
3
3
3
1
7
10
10
3
3
1
3
3
3
3
1
3
3
3
3
1
1
3
3
3
3
1
3
3
3
3
1
3
3
10
10
7
1
3
3
3
3
1
3
3
3
3
1
3
3
10
10
7
7
10
10
3
3
1
3
3
3
3
1
3
3
3
3
1
8
11
10
10
3
3
1
3
3
1
3
3
3
3
3
1
1
3
3
3
3
3
1
3
3
1
3
3
10
10
11
8
1
3
3
3
3
3
1
3
3
1
3
3
10
10
11
8
8
11
10
10
3
3
1
3
3
1
3
3
3
3
3
1
9
8
11
10
3
3
3
1
1
3
3
3
3
3
3
1
1
3
3
3
3
3
3
1
1
3
3
3
10
11
8
9
1
3
3
3
3
3
3
1
1
3
3
3
10
11
8
9
9
8
11
10
3
3
3
1
1
3
3
3
3
3
3
1
9
8
11
10
3
3
3
1
1
3
3
3
3
3
3
1
1
3
3
3
3
3
3
1
1
3
3
3
10
11
8
9
1
3
3
3
3
3
3
1
1
3
3
3
10
11
8
9
9
8
11
10
3
3
3
1
1
3
3
3
3
3
3
1
8
11
10
10
3
3
1
3
3
1
3
3
3
3
3
1
1
3
3
3
3
3
1
3
3
1
3
3
10
10
11
8
1
3
3
3
3
3
1
3
3
1
3
3
10
10
11
8
8
11
10
10
3
3
1
3
3
1
3
3
3
3
3
1
7
10
10
3
3
1
3
3
3
3
1
3
3
3
3
1
1
3
3
3
3
1
3
3
3
3
1
3
3
10
10
7
1
3
3
3
3
1
3
3
3
3
1
3
3
10
10
7
7
10
10
3
3
1
3
3
3
3
1
3
3
3
3
1
7
10
3
3
1
3
3
3
3
3
3
1
3
3
3
1
1
3
3
3
1
3
3
3
3
3
3
1
3
3
10
7
1
3
3
3
1
3
3
3
3
3
3
1
3
3
10
7
7
10
3
3
1
3
3
3
3
3
3
1
3
3
3
1
1
3
3
1
3
3
3
3
3
3
3
3
1
3
3
1
1
3
3
1
3
3
3
3
3
3
3
3
1
3
3
1
1
3
3
1
3
3
10
10
10
10
3
3
1
3
3
1
1
3
3
1
3
3
10
10
10
10
3
3
1
3
3
1
1
3
1
3
3
3
3
3
3
3
3
3
3
1
3
1
1
3
1
3
3
3
3
3
3
3
3
3
3
1
3
1
1
3
1
3
3
10
10
11
11
10
10
3
3
1
3
1
1
3
1
3
3
10
10
11
11
10
10
3
3
1
3
1
1
1
3
3
3
3
3
3
3
3
3
3
3
3
1
1
1
1
3
3
3
3
3
3
3
3
3
3
3
3
1
1
1
1
3
3
10
10
11
8
8
11
10
10
3
3
1
1
1
1
3
3
10
10
11
8
8
11
10
10
3
3
1
1
1
1
1
1
1
1
1
1
1
1
1
1
1
1
1
1
1
1
1
1
1
1
1
1
1
1
1
1
1
1
1
1
1
1
1
1
7
7
8
9
9
8
7
7
1
1
1
1
1
1
1
1
7
7
8
9
9
8
7
7
1
1
1
1
